<svg version="1.1" viewBox="0.0 0.0 600.0 371.0" fill="none" stroke="none" stroke-linecap="square" stroke-miterlimit="10" width="600" height="371" xmlns:xlink="http://www.w3.org/1999/xlink" xmlns="http://www.w3.org/2000/svg"><path fill="#ffffff" d="M0 0L600.0 0L600.0 371.0L0 371.0L0 0Z" fill-rule="nonzero"/><path stroke="#333333" stroke-width="1.0" stroke-linecap="butt" d="M77.5 300.5L581.5 300.5" fill-rule="nonzero"/><path stroke="#cccccc" stroke-width="1.0" stroke-linecap="butt" d="M77.5 238.5L581.5 238.5" fill-rule="nonzero"/><path stroke="#cccccc" stroke-width="1.0" stroke-linecap="butt" d="M77.5 176.5L581.5 176.5" fill-rule="nonzero"/><path stroke="#cccccc" stroke-width="1.0" stroke-linecap="butt" d="M77.5 114.5L581.5 114.5" fill-rule="nonzero"/><path stroke="#cccccc" stroke-width="1.0" stroke-linecap="butt" d="M77.5 51.5L581.5 51.5" fill-rule="nonzero"/><clipPath id="id_0"><path d="M77.55 51.916668L581.45 51.916668L581.45 300.45L77.55 300.45L77.55 51.916668Z" clip-rule="nonzero"/></clipPath><path stroke="#4285f4" stroke-width="2.0" stroke-linecap="butt" clip-path="url(#id_0)" d="M127.94 276.89227C127.94 276.89227 195.12666 265.75208 228.72 263.62695C262.31332 261.50183 295.90668 266.54803 329.5 264.1415C363.09332 261.735 396.68668 257.00946 430.28 249.18774C463.87332 241.36603 531.06 217.21118 531.06 217.21118" fill-rule="nonzero"/><path stroke="#ea4335" stroke-width="2.0" stroke-linecap="butt" clip-path="url(#id_0)" d="M127.94 262.88626C127.94 262.88626 195.12666 252.07924 228.72 245.68268C262.31332 239.2861 295.90668 241.0139 329.5 224.50687C363.09332 207.99983 396.68668 170.9749 430.28 146.64046C463.87332 122.30601 531.06 78.500175 531.06 78.500175" fill-rule="nonzero"/><path fill="#000000" fill-opacity="0.0" clip-path="url(#id_0)" d="M130.94 276.89227C130.94 278.54913 129.59685 279.89227 127.94 279.89227C126.28314 279.89227 124.94 278.54913 124.94 276.89227C124.94 275.2354 126.28314 273.89227 127.94 273.89227C129.59685 273.89227 130.94 275.2354 130.94 276.89227Z" fill-rule="nonzero"/><path fill="#000000" fill-opacity="0.0" clip-path="url(#id_0)" d="M231.72 263.62695C231.72 265.2838 230.37686 266.62695 228.72 266.62695C227.06314 266.62695 225.72 265.2838 225.72 263.62695C225.72 261.9701 227.06314 260.62695 228.72 260.62695C230.37686 260.62695 231.72 261.9701 231.72 263.62695Z" fill-rule="nonzero"/><path fill="#000000" fill-opacity="0.0" clip-path="url(#id_0)" d="M332.5 264.1415C332.5 265.79837 331.15686 267.1415 329.5 267.1415C327.84314 267.1415 326.5 265.79837 326.5 264.1415C326.5 262.48465 327.84314 261.1415 329.5 261.1415C331.15686 261.1415 332.5 262.48465 332.5 264.1415Z" fill-rule="nonzero"/><path fill="#000000" fill-opacity="0.0" clip-path="url(#id_0)" d="M433.28 249.18774C433.28 250.8446 431.93686 252.18774 430.28 252.18774C428.62314 252.18774 427.28 250.8446 427.28 249.18774C427.28 247.53088 428.62314 246.18774 430.28 246.18774C431.93686 246.18774 433.28 247.53088 433.28 249.18774Z" fill-rule="nonzero"/><path fill="#000000" fill-opacity="0.0" clip-path="url(#id_0)" d="M534.06 217.21118C534.06 218.86803 532.71686 220.21118 531.06 220.21118C529.40314 220.21118 528.06 218.86803 528.06 217.21118C528.06 215.55432 529.40314 214.21118 531.06 214.21118C532.71686 214.21118 534.06 215.55432 534.06 217.21118Z" fill-rule="nonzero"/><path fill="#000000" fill-opacity="0.0" clip-path="url(#id_0)" d="M130.94 262.88626C130.94 264.54312 129.59685 265.88626 127.94 265.88626C126.28314 265.88626 124.94 264.54312 124.94 262.88626C124.94 261.2294 126.28314 259.88626 127.94 259.88626C129.59685 259.88626 130.94 261.2294 130.94 262.88626Z" fill-rule="nonzero"/><path fill="#000000" fill-opacity="0.0" clip-path="url(#id_0)" d="M231.72 245.68268C231.72 247.33952 230.37686 248.68268 228.72 248.68268C227.06314 248.68268 225.72 247.33952 225.72 245.68268C225.72 244.02582 227.06314 242.68268 228.72 242.68268C230.37686 242.68268 231.72 244.02582 231.72 245.68268Z" fill-rule="nonzero"/><path fill="#000000" fill-opacity="0.0" clip-path="url(#id_0)" d="M332.5 224.50687C332.5 226.16371 331.15686 227.50687 329.5 227.50687C327.84314 227.50687 326.5 226.16371 326.5 224.50687C326.5 222.85 327.84314 221.50687 329.5 221.50687C331.15686 221.50687 332.5 222.85 332.5 224.50687Z" fill-rule="nonzero"/><path fill="#000000" fill-opacity="0.0" clip-path="url(#id_0)" d="M433.28 146.64046C433.28 148.29732 431.93686 149.64046 430.28 149.64046C428.62314 149.64046 427.28 148.29732 427.28 146.64046C427.28 144.9836 428.62314 143.64046 430.28 143.64046C431.93686 143.64046 433.28 144.9836 433.28 146.64046Z" fill-rule="nonzero"/><path fill="#000000" fill-opacity="0.0" clip-path="url(#id_0)" d="M534.06 78.500175C534.06 80.15703 532.71686 81.500175 531.06 81.500175C529.40314 81.500175 528.06 80.15703 528.06 78.500175C528.06 76.84332 529.40314 75.500175 531.06 75.500175C532.71686 75.500175 534.06 76.84332 534.06 78.500175Z" fill-rule="nonzero"/><path fill="#000000" d="M294.39062 349.45L294.39062 340.85626L296.10938 340.85626L298.14062 346.9344Q298.42188 347.79376 298.54688 348.21564Q298.6875 347.7469 299.0 346.84064L301.0625 340.85626L302.59375 340.85626L302.59375 349.45L301.5 349.45L301.5 342.2625L299.0 349.45L297.96875 349.45L295.48438 342.1375L295.48438 349.45L294.39062 349.45ZM307.54688 347.45L308.64062 347.575Q308.39062 348.52814 307.6875 349.0594Q306.98438 349.59064 305.90625 349.59064Q304.54688 349.59064 303.73438 348.7469Q302.9375 347.90314 302.9375 346.3875Q302.9375 344.825 303.75 343.96564Q304.5625 343.09064 305.84375 343.09064Q307.09375 343.09064 307.875 343.9344Q308.67188 344.77814 308.67188 346.325Q308.67188 346.41876 308.67188 346.60626L304.03125 346.60626Q304.09375 347.6375 304.60938 348.1844Q305.125 348.71564 305.90625 348.71564Q306.48438 348.71564 306.89062 348.41876Q307.3125 348.10626 307.54688 347.45ZM304.09375 345.7469L307.5625 345.7469Q307.5 344.95 307.17188 344.5594Q306.65625 343.95 305.85938 343.95Q305.125 343.95 304.625 344.4344Q304.14062 344.91876 304.09375 345.7469ZM312.59375 348.5125L312.75 349.4344Q312.29688 349.52814 311.95312 349.52814Q311.375 349.52814 311.0625 349.35626Q310.75 349.16876 310.60938 348.8719Q310.48438 348.575 310.48438 347.6219L310.48438 344.04376L309.71875 344.04376L309.71875 343.23126L310.48438 343.23126L310.48438 341.6844L311.53125 341.0594L311.53125 343.23126L312.59375 343.23126L312.59375 344.04376L311.53125 344.04376L311.53125 347.6844Q311.53125 348.1375 311.57812 348.2625Q311.64062 348.3875 311.76562 348.46564Q311.89062 348.54376 312.125 348.54376Q312.3125 348.54376 312.59375 348.5125ZM313.29688 349.45L313.29688 340.85626L314.34375 340.85626L314.34375 343.9344Q315.07812 343.09064 316.20312 343.09064Q316.90625 343.09064 317.40625 343.3719Q317.92188 343.6375 318.14062 344.1219Q318.35938 344.59064 318.35938 345.5125L318.35938 349.45L317.3125 349.45L317.3125 345.5125Q317.3125 344.71564 316.96875 344.35626Q316.625 343.9969 316.0 343.9969Q315.53125 343.9969 315.10938 344.2469Q314.70312 344.48126 314.51562 344.90314Q314.34375 345.3094 314.34375 346.04376L314.34375 349.45L313.29688 349.45ZM319.90625 346.34064Q319.90625 344.60626 320.85938 343.77814Q321.65625 343.09064 322.8125 343.09064Q324.09375 343.09064 324.90625 343.9344Q325.73438 344.7625 325.73438 346.2469Q325.73438 347.45 325.375 348.1375Q325.01562 348.825 324.3125 349.21564Q323.625 349.59064 322.8125 349.59064Q321.51562 349.59064 320.70312 348.7625Q319.90625 347.91876 319.90625 346.34064ZM320.98438 346.34064Q320.98438 347.52814 321.5 348.1219Q322.03125 348.71564 322.8125 348.71564Q323.60938 348.71564 324.125 348.1219Q324.64062 347.52814 324.64062 346.3094Q324.64062 345.15314 324.10938 344.5594Q323.59375 343.96564 322.8125 343.96564Q322.03125 343.96564 321.5 344.5594Q320.98438 345.1375 320.98438 346.34064ZM331.32812 349.45L331.32812 348.66876Q330.73438 349.59064 329.59375 349.59064Q328.84375 349.59064 328.21875 349.1844Q327.59375 348.7625 327.25 348.02814Q326.90625 347.29376 326.90625 346.34064Q326.90625 345.41876 327.21875 344.65314Q327.53125 343.8875 328.15625 343.4969Q328.78125 343.09064 329.54688 343.09064Q330.10938 343.09064 330.54688 343.325Q330.98438 343.5594 331.26562 343.9344L331.26562 340.85626L332.3125 340.85626L332.3125 349.45L331.32812 349.45ZM328.0 346.34064Q328.0 347.54376 328.5 348.1375Q329.0 348.71564 329.6875 348.71564Q330.375 348.71564 330.85938 348.15314Q331.34375 347.59064 331.34375 346.4344Q331.34375 345.15314 330.84375 344.5594Q330.35938 343.96564 329.64062 343.96564Q328.9375 343.96564 328.46875 344.54376Q328.0 345.10626 328.0 346.34064ZM343.5625 346.4344L344.6875 346.73126Q344.32812 348.1219 343.40625 348.85626Q342.48438 349.59064 341.14062 349.59064Q339.75 349.59064 338.875 349.02814Q338.0 348.46564 337.54688 347.40314Q337.09375 346.325 337.09375 345.09064Q337.09375 343.7469 337.60938 342.7469Q338.125 341.7469 339.0625 341.23126Q340.01562 340.71564 341.15625 340.71564Q342.4375 340.71564 343.3125 341.3719Q344.20312 342.02814 344.54688 343.21564L343.42188 343.48126Q343.125 342.54376 342.54688 342.1219Q341.98438 341.6844 341.125 341.6844Q340.14062 341.6844 339.46875 342.16876Q338.8125 342.6375 338.53125 343.4344Q338.26562 344.23126 338.26562 345.09064Q338.26562 346.1844 338.57812 346.9969Q338.90625 347.8094 339.57812 348.21564Q340.25 348.6219 341.04688 348.6219Q342.0 348.6219 342.65625 348.075Q343.32812 347.52814 343.5625 346.4344ZM350.35938 348.6844Q349.76562 349.1844 349.21875 349.3875Q348.6875 349.59064 348.0625 349.59064Q347.03125 349.59064 346.48438 349.09064Q345.9375 348.59064 345.9375 347.8094Q345.9375 347.35626 346.14062 346.98126Q346.34375 346.59064 346.6875 346.3719Q347.03125 346.1375 347.45312 346.02814Q347.75 345.9344 348.39062 345.85626Q349.65625 345.71564 350.26562 345.4969Q350.26562 345.27814 350.26562 345.23126Q350.26562 344.575 349.96875 344.3094Q349.5625 343.96564 348.76562 343.96564Q348.03125 343.96564 347.67188 344.23126Q347.3125 344.48126 347.14062 345.1375L346.10938 344.9969Q346.25 344.34064 346.57812 343.9344Q346.90625 343.52814 347.51562 343.3094Q348.125 343.09064 348.92188 343.09064Q349.71875 343.09064 350.21875 343.27814Q350.71875 343.46564 350.95312 343.7469Q351.1875 344.02814 351.28125 344.46564Q351.32812 344.73126 351.32812 345.4344L351.32812 346.84064Q351.32812 348.3094 351.39062 348.7Q351.46875 349.09064 351.67188 349.45L350.5625 349.45Q350.40625 349.1219 350.35938 348.6844ZM350.26562 346.325Q349.6875 346.5594 348.54688 346.73126Q347.89062 346.825 347.625 346.95Q347.35938 347.0594 347.20312 347.27814Q347.0625 347.4969 347.0625 347.77814Q347.0625 348.2 347.375 348.48126Q347.70312 348.7625 348.3125 348.7625Q348.92188 348.7625 349.39062 348.4969Q349.875 348.23126 350.09375 347.7625Q350.26562 347.40314 350.26562 346.71564L350.26562 346.325ZM353.26562 349.45L353.26562 340.85626L354.32812 340.85626L354.32812 349.45L353.26562 349.45ZM356.26562 349.45L356.26562 340.85626L357.32812 340.85626L357.32812 349.45L356.26562 349.45ZM358.875 347.59064L359.90625 347.4344Q360.0 348.0594 360.39062 348.3875Q360.79688 348.71564 361.53125 348.71564Q362.25 348.71564 362.59375 348.4344Q362.95312 348.1375 362.95312 347.73126Q362.95312 347.3719 362.64062 347.16876Q362.42188 347.02814 361.5625 346.8094Q360.40625 346.5125 359.95312 346.3094Q359.51562 346.09064 359.28125 345.71564Q359.04688 345.34064 359.04688 344.8719Q359.04688 344.46564 359.23438 344.10626Q359.42188 343.7469 359.75 343.5125Q360.0 343.34064 360.42188 343.21564Q360.84375 343.09064 361.34375 343.09064Q362.0625 343.09064 362.60938 343.3094Q363.17188 343.5125 363.4375 343.8719Q363.70312 344.23126 363.79688 344.825L362.76562 344.96564Q362.70312 344.4969 362.35938 344.23126Q362.03125 343.95 361.40625 343.95Q360.6875 343.95 360.375 344.2Q360.0625 344.4344 360.0625 344.7625Q360.0625 344.96564 360.1875 345.1219Q360.32812 345.29376 360.59375 345.40314Q360.75 345.46564 361.53125 345.66876Q362.65625 345.98126 363.09375 346.16876Q363.53125 346.35626 363.78125 346.71564Q364.03125 347.075 364.03125 347.6219Q364.03125 348.15314 363.71875 348.6219Q363.42188 349.075 362.84375 349.34064Q362.26562 349.59064 361.53125 349.59064Q360.3125 349.59064 359.67188 349.09064Q359.04688 348.575 358.875 347.59064Z" fill-rule="nonzero"/><path fill="#000000" d="M29.550013 236.88646L23.331263 236.88646L23.331263 235.94896L24.206263 235.94896Q23.737513 235.65208 23.471888 235.16771Q23.190638 234.68333 23.190638 234.05833Q23.190638 233.37083 23.471888 232.93333Q23.753138 232.48021 24.268763 232.30833Q23.190638 231.55833 23.190638 230.38646Q23.190638 229.44896 23.706263 228.96458Q24.206263 228.46458 25.284388 228.46458L29.550013 228.46458L29.550013 229.51146L25.628138 229.51146Q25.003138 229.51146 24.721888 229.62083Q24.440638 229.71458 24.268763 229.98021Q24.096888 230.24583 24.096888 230.62083Q24.096888 231.27708 24.534388 231.71458Q24.971888 232.13646 25.940638 232.13646L29.550013 232.13646L29.550013 233.19896L25.503138 233.19896Q24.800013 233.19896 24.456263 233.46458Q24.096888 233.71458 24.096888 234.29271Q24.096888 234.74583 24.331263 235.12083Q24.565638 235.49583 25.018763 235.66771Q25.471888 235.83958 26.315638 235.83958L29.550013 235.83958L29.550013 236.88646ZM27.690638 226.30833L27.534388 225.27708Q28.159388 225.18333 28.487513 224.79271Q28.815638 224.38646 28.815638 223.65208Q28.815638 222.93333 28.534388 222.58958Q28.237513 222.23021 27.831263 222.23021Q27.471888 222.23021 27.268763 222.54271Q27.128138 222.76146 26.909388 223.62083Q26.612513 224.77708 26.409388 225.23021Q26.190638 225.66771 25.815638 225.90208Q25.440638 226.13646 24.971888 226.13646Q24.565638 226.13646 24.206263 225.94896Q23.846888 225.76146 23.612513 225.43333Q23.440638 225.18333 23.315638 224.76146Q23.190638 224.33958 23.190638 223.83958Q23.190638 223.12083 23.409388 222.57396Q23.612513 222.01146 23.971888 221.74583Q24.331263 221.48021 24.925013 221.38646L25.065638 222.41771Q24.596888 222.48021 24.331263 222.82396Q24.050013 223.15208 24.050013 223.77708Q24.050013 224.49583 24.300013 224.80833Q24.534388 225.12083 24.862513 225.12083Q25.065638 225.12083 25.221888 224.99583Q25.393763 224.85521 25.503138 224.58958Q25.565638 224.43333 25.768763 223.65208Q26.081263 222.52708 26.268763 222.08958Q26.456263 221.65208 26.815638 221.40208Q27.175013 221.15208 27.721888 221.15208Q28.253138 221.15208 28.721888 221.46458Q29.175013 221.76146 29.440638 222.33958Q29.690638 222.91771 29.690638 223.65208Q29.690638 224.87083 29.190638 225.51146Q28.675013 226.13646 27.690638 226.30833ZM29.690638 219.68333L20.815638 217.19896L20.815638 216.35521L29.690638 218.83958L29.690638 219.68333ZM27.690638 216.30833L27.534388 215.27708Q28.159388 215.18333 28.487513 214.79271Q28.815638 214.38646 28.815638 213.65208Q28.815638 212.93333 28.534388 212.58958Q28.237513 212.23021 27.831263 212.23021Q27.471888 212.23021 27.268763 212.54271Q27.128138 212.76146 26.909388 213.62083Q26.612513 214.77708 26.409388 215.23021Q26.190638 215.66771 25.815638 215.90208Q25.440638 216.13646 24.971888 216.13646Q24.565638 216.13646 24.206263 215.94896Q23.846888 215.76146 23.612513 215.43333Q23.440638 215.18333 23.315638 214.76146Q23.190638 214.33958 23.190638 213.83958Q23.190638 213.12083 23.409388 212.57396Q23.612513 212.01146 23.971888 211.74583Q24.331263 211.48021 24.925013 211.38646L25.065638 212.41771Q24.596888 212.48021 24.331263 212.82396Q24.050013 213.15208 24.050013 213.77708Q24.050013 214.49583 24.300013 214.80833Q24.534388 215.12083 24.862513 215.12083Q25.065638 215.12083 25.221888 214.99583Q25.393763 214.85521 25.503138 214.58958Q25.565638 214.43333 25.768763 213.65208Q26.081263 212.52708 26.268763 212.08958Q26.456263 211.65208 26.815638 211.40208Q27.175013 211.15208 27.721888 211.15208Q28.253138 211.15208 28.721888 211.46458Q29.175013 211.76146 29.440638 212.33958Q29.690638 212.91771 29.690638 213.65208Q29.690638 214.87083 29.190638 215.51146Q28.675013 216.13646 27.690638 216.30833ZM27.268763 204.82396L27.409388 203.79271Q28.471888 203.96458 29.081263 204.66771Q29.690638 205.37083 29.690638 206.38646Q29.690638 207.66771 28.862513 208.44896Q28.018763 209.21458 26.456263 209.21458Q25.456263 209.21458 24.706263 208.88646Q23.940638 208.54271 23.565638 207.87083Q23.190638 207.18333 23.190638 206.37083Q23.190638 205.37083 23.706263 204.73021Q24.206263 204.07396 25.159388 203.88646L25.315638 204.91771Q24.690638 205.05833 24.378138 205.43333Q24.050013 205.80833 24.050013 206.33958Q24.050013 207.13646 24.628138 207.63646Q25.190638 208.13646 26.425013 208.13646Q27.690638 208.13646 28.253138 207.65208Q28.815638 207.16771 28.815638 206.40208Q28.815638 205.77708 28.440638 205.37083Q28.065638 204.94896 27.268763 204.82396ZM29.550013 202.90208L23.331263 202.90208L23.331263 201.94896L24.268763 201.94896Q23.612513 201.58958 23.409388 201.29271Q23.190638 200.98021 23.190638 200.60521Q23.190638 200.07396 23.518763 199.52708L24.503138 199.88646Q24.268763 200.27708 24.268763 200.65208Q24.268763 201.01146 24.487513 201.29271Q24.690638 201.55833 25.065638 201.66771Q25.628138 201.85521 26.284388 201.85521L29.550013 201.85521L29.550013 202.90208ZM22.175013 198.88646L20.956263 198.88646L20.956263 197.82396L22.175013 197.82396L22.175013 198.88646ZM29.550013 198.88646L23.331263 198.88646L23.331263 197.82396L29.550013 197.82396L29.550013 198.88646ZM31.940638 195.88646L23.331263 195.88646L23.331263 194.93333L24.128138 194.93333Q23.659388 194.58958 23.425013 194.16771Q23.190638 193.73021 23.190638 193.12083Q23.190638 192.32396 23.596888 191.71458Q24.003138 191.10521 24.753138 190.80833Q25.503138 190.49583 26.393763 190.49583Q27.346888 190.49583 28.112513 190.83958Q28.878138 191.16771 29.284388 191.82396Q29.690638 192.48021 29.690638 193.19896Q29.690638 193.73021 29.471888 194.15208Q29.237513 194.57396 28.909388 194.83958L31.940638 194.83958L31.940638 195.88646ZM26.471888 194.93333Q27.675013 194.93333 28.253138 194.44896Q28.815638 193.96458 28.815638 193.27708Q28.815638 192.57396 28.221888 192.07396Q27.628138 191.57396 26.378138 191.57396Q25.190638 191.57396 24.612513 192.05833Q24.018763 192.54271 24.018763 193.23021Q24.018763 193.90208 24.643763 194.41771Q25.268763 194.93333 26.471888 194.93333ZM28.612513 186.58958L29.534388 186.43333Q29.628138 186.88646 29.628138 187.23021Q29.628138 187.80833 29.456263 188.12083Q29.268763 188.43333 28.971888 188.57396Q28.675013 188.69896 27.721888 188.69896L24.143763 188.69896L24.143763 189.46458L23.331263 189.46458L23.331263 188.69896L21.784388 188.69896L21.159388 187.65208L23.331263 187.65208L23.331263 186.58958L24.143763 186.58958L24.143763 187.65208L27.784388 187.65208Q28.237513 187.65208 28.362513 187.60521Q28.487513 187.54271 28.565638 187.41771Q28.643763 187.29271 28.643763 187.05833Q28.643763 186.87083 28.612513 186.58958ZM27.550013 178.63646L27.675013 177.54271Q28.628138 177.79271 29.159388 178.49583Q29.690638 179.19896 29.690638 180.27708Q29.690638 181.63646 28.846888 182.44896Q28.003138 183.24583 26.487513 183.24583Q24.925013 183.24583 24.065638 182.43333Q23.190638 181.62083 23.190638 180.33958Q23.190638 179.08958 24.034388 178.30833Q24.878138 177.51146 26.425013 177.51146Q26.518763 177.51146 26.706263 177.51146L26.706263 182.15208Q27.737513 182.08958 28.284388 181.57396Q28.815638 181.05833 28.815638 180.27708Q28.815638 179.69896 28.518763 179.29271Q28.206263 178.87083 27.550013 178.63646ZM25.846888 182.08958L25.846888 178.62083Q25.050013 178.68333 24.659388 179.01146Q24.050013 179.52708 24.050013 180.32396Q24.050013 181.05833 24.534388 181.55833Q25.018763 182.04271 25.846888 182.08958ZM29.550013 174.16771L23.331263 176.52708L23.331263 175.41771L27.050013 174.07396Q27.659388 173.87083 28.300013 173.68333Q27.815638 173.54271 27.128138 173.29271L23.331263 171.90208L23.331263 170.82396L29.550013 173.18333L29.550013 174.16771ZM28.784388 166.82396Q29.284388 167.41771 29.487513 167.96458Q29.690638 168.49583 29.690638 169.12083Q29.690638 170.15208 29.190638 170.69896Q28.690638 171.24583 27.909388 171.24583Q27.456263 171.24583 27.081263 171.04271Q26.690638 170.83958 26.471888 170.49583Q26.237513 170.15208 26.128138 169.73021Q26.034388 169.43333 25.956263 168.79271Q25.815638 167.52708 25.596888 166.91771Q25.378138 166.91771 25.331263 166.91771Q24.675013 166.91771 24.409388 167.21458Q24.065638 167.62083 24.065638 168.41771Q24.065638 169.15208 24.331263 169.51146Q24.581263 169.87083 25.237513 170.04271L25.096888 171.07396Q24.440638 170.93333 24.034388 170.60521Q23.628138 170.27708 23.409388 169.66771Q23.190638 169.05833 23.190638 168.26146Q23.190638 167.46458 23.378138 166.96458Q23.565638 166.46458 23.846888 166.23021Q24.128138 165.99583 24.565638 165.90208Q24.831263 165.85521 25.534388 165.85521L26.940638 165.85521Q28.409388 165.85521 28.800013 165.79271Q29.190638 165.71458 29.550013 165.51146L29.550013 166.62083Q29.221888 166.77708 28.784388 166.82396ZM26.425013 166.91771Q26.659388 167.49583 26.831263 168.63646Q26.925013 169.29271 27.050013 169.55833Q27.159388 169.82396 27.378138 169.98021Q27.596888 170.12083 27.878138 170.12083Q28.300013 170.12083 28.581263 169.80833Q28.862513 169.48021 28.862513 168.87083Q28.862513 168.26146 28.596888 167.79271Q28.331263 167.30833 27.862513 167.08958Q27.503138 166.91771 26.815638 166.91771L26.425013 166.91771ZM29.550013 163.91771L20.956263 163.91771L20.956263 162.85521L29.550013 162.85521L29.550013 163.91771ZM29.550013 156.80833L28.628138 156.80833Q29.690638 157.54271 29.690638 158.79271Q29.690638 159.33958 29.487513 159.82396Q29.268763 160.29271 28.956263 160.52708Q28.628138 160.76146 28.159388 160.85521Q27.862513 160.91771 27.175013 160.91771L23.331263 160.91771L23.331263 159.85521L26.784388 159.85521Q27.596888 159.85521 27.893763 159.79271Q28.300013 159.69896 28.550013 159.38646Q28.784388 159.05833 28.784388 158.57396Q28.784388 158.10521 28.550013 157.69896Q28.300013 157.27708 27.878138 157.10521Q27.456263 156.91771 26.659388 156.91771L23.331263 156.91771L23.331263 155.87083L29.550013 155.87083L29.550013 156.80833ZM28.784388 149.82396Q29.284388 150.41771 29.487513 150.96458Q29.690638 151.49583 29.690638 152.12083Q29.690638 153.15208 29.190638 153.69896Q28.690638 154.24583 27.909388 154.24583Q27.456263 154.24583 27.081263 154.04271Q26.690638 153.83958 26.471888 153.49583Q26.237513 153.15208 26.128138 152.73021Q26.034388 152.43333 25.956263 151.79271Q25.815638 150.52708 25.596888 149.91771Q25.378138 149.91771 25.331263 149.91771Q24.675013 149.91771 24.409388 150.21458Q24.065638 150.62083 24.065638 151.41771Q24.065638 152.15208 24.331263 152.51146Q24.581263 152.87083 25.237513 153.04271L25.096888 154.07396Q24.440638 153.93333 24.034388 153.60521Q23.628138 153.27708 23.409388 152.66771Q23.190638 152.05833 23.190638 151.26146Q23.190638 150.46458 23.378138 149.96458Q23.565638 149.46458 23.846888 149.23021Q24.128138 148.99583 24.565638 148.90208Q24.831263 148.85521 25.534388 148.85521L26.940638 148.85521Q28.409388 148.85521 28.800013 148.79271Q29.190638 148.71458 29.550013 148.51146L29.550013 149.62083Q29.221888 149.77708 28.784388 149.82396ZM26.425013 149.91771Q26.659388 150.49583 26.831263 151.63646Q26.925013 152.29271 27.050013 152.55833Q27.159388 152.82396 27.378138 152.98021Q27.596888 153.12083 27.878138 153.12083Q28.300013 153.12083 28.581263 152.80833Q28.862513 152.48021 28.862513 151.87083Q28.862513 151.26146 28.596888 150.79271Q28.331263 150.30833 27.862513 150.08958Q27.503138 149.91771 26.815638 149.91771L26.425013 149.91771ZM28.612513 144.58958L29.534388 144.43333Q29.628138 144.88646 29.628138 145.23021Q29.628138 145.80833 29.456263 146.12083Q29.268763 146.43333 28.971888 146.57396Q28.675013 146.69896 27.721888 146.69896L24.143763 146.69896L24.143763 147.46458L23.331263 147.46458L23.331263 146.69896L21.784388 146.69896L21.159388 145.65208L23.331263 145.65208L23.331263 144.58958L24.143763 144.58958L24.143763 145.65208L27.784388 145.65208Q28.237513 145.65208 28.362513 145.60521Q28.487513 145.54271 28.565638 145.41771Q28.643763 145.29271 28.643763 145.05833Q28.643763 144.87083 28.612513 144.58958ZM22.175013 143.88646L20.956263 143.88646L20.956263 142.82396L22.175013 142.82396L22.175013 143.88646ZM29.550013 143.88646L23.331263 143.88646L23.331263 142.82396L29.550013 142.82396L29.550013 143.88646ZM26.440638 141.27708Q24.706263 141.27708 23.878138 140.32396Q23.190638 139.52708 23.190638 138.37083Q23.190638 137.08958 24.034388 136.27708Q24.862513 135.44896 26.346888 135.44896Q27.550013 135.44896 28.237513 135.80833Q28.925013 136.16771 29.315638 136.87083Q29.690638 137.55833 29.690638 138.37083Q29.690638 139.66771 28.862513 140.48021Q28.018763 141.27708 26.440638 141.27708ZM26.440638 140.19896Q27.628138 140.19896 28.221888 139.68333Q28.815638 139.15208 28.815638 138.37083Q28.815638 137.57396 28.221888 137.05833Q27.628138 136.54271 26.409388 136.54271Q25.253138 136.54271 24.659388 137.07396Q24.065638 137.58958 24.065638 138.37083Q24.065638 139.15208 24.659388 139.68333Q25.237513 140.19896 26.440638 140.19896ZM29.550013 133.88646L23.331263 133.88646L23.331263 132.94896L24.206263 132.94896Q23.190638 132.26146 23.190638 130.96458Q23.190638 130.40208 23.393763 129.93333Q23.596888 129.44896 23.925013 129.21458Q24.253138 128.98021 24.690638 128.88646Q24.987513 128.83958 25.721888 128.83958L29.550013 128.83958L29.550013 129.88646L25.768763 129.88646Q25.112513 129.88646 24.800013 130.01146Q24.487513 130.13646 24.300013 130.44896Q24.096888 130.76146 24.096888 131.18333Q24.096888 131.85521 24.534388 132.35521Q24.956263 132.83958 26.143763 132.83958L29.550013 132.83958L29.550013 133.88646Z" fill-rule="nonzero"/><path fill="#000000" d="M65.05 300.21564Q65.05 298.6844 65.3625 297.7625Q65.675 296.825 66.28438 296.325Q66.90938 295.825 67.84688 295.825Q68.53438 295.825 69.05 296.10626Q69.58125 296.3875 69.925 296.91876Q70.26875 297.4344 70.45625 298.1844Q70.64375 298.9344 70.64375 300.21564Q70.64375 301.73126 70.33125 302.65314Q70.03438 303.575 69.40938 304.09064Q68.8 304.59064 67.84688 304.59064Q66.6125 304.59064 65.89375 303.7Q65.05 302.6375 65.05 300.21564ZM66.12813 300.21564Q66.12813 302.325 66.62813 303.02814Q67.12813 303.73126 67.84688 303.73126Q68.58125 303.73126 69.06563 303.02814Q69.56563 302.325 69.56563 300.21564Q69.56563 298.09064 69.06563 297.40314Q68.58125 296.7 67.83125 296.7Q67.1125 296.7 66.675 297.3094Q66.12813 298.09064 66.12813 300.21564Z" fill-rule="nonzero"/><path fill="#000000" d="M62.01875 242.31667L60.971874 242.31667L60.971874 235.59792Q60.58125 235.95729 59.95625 236.33229Q59.346874 236.69167 58.8625 236.86354L58.8625 235.84792Q59.7375 235.42604 60.39375 234.84792Q61.065624 234.25417 61.346874 233.69167L62.01875 233.69167L62.01875 242.31667ZM65.05 238.08229Q65.05 236.55104 65.3625 235.62917Q65.675 234.69167 66.28438 234.19167Q66.90938 233.69167 67.84688 233.69167Q68.53438 233.69167 69.05 233.97292Q69.58125 234.25417 69.925 234.78542Q70.26875 235.30104 70.45625 236.05104Q70.64375 236.80104 70.64375 238.08229Q70.64375 239.59792 70.33125 240.51979Q70.03438 241.44167 69.40938 241.95729Q68.8 242.45729 67.84688 242.45729Q66.6125 242.45729 65.89375 241.56667Q65.05 240.50417 65.05 238.08229ZM66.12813 238.08229Q66.12813 240.19167 66.62813 240.89479Q67.12813 241.59792 67.84688 241.59792Q68.58125 241.59792 69.06563 240.89479Q69.56563 240.19167 69.56563 238.08229Q69.56563 235.95729 69.06563 235.26979Q68.58125 234.56667 67.83125 234.56667Q67.1125 234.56667 66.675 235.17604Q66.12813 235.95729 66.12813 238.08229Z" fill-rule="nonzero"/><path fill="#000000" d="M63.596874 179.16771L63.596874 180.18333L57.909374 180.18333Q57.909374 179.80833 58.034374 179.44896Q58.253124 178.87083 58.721874 178.30833Q59.20625 177.74583 60.1125 177.01146Q61.51875 175.85521 62.003124 175.18333Q62.503124 174.51146 62.503124 173.91771Q62.503124 173.29271 62.05 172.87083Q61.596874 172.43333 60.878124 172.43333Q60.1125 172.43333 59.659374 172.88646Q59.20625 173.33958 59.190624 174.15208L58.1125 174.04271Q58.221874 172.82396 58.940624 172.19896Q59.675 171.55833 60.909374 171.55833Q62.14375 171.55833 62.8625 172.24583Q63.58125 172.93333 63.58125 173.94896Q63.58125 174.46458 63.3625 174.96458Q63.159374 175.44896 62.659374 176.01146Q62.175 176.55833 61.05 177.51146Q60.096874 178.30833 59.815624 178.60521Q59.55 178.88646 59.378124 179.16771L63.596874 179.16771ZM65.05 175.94896Q65.05 174.41771 65.3625 173.49583Q65.675 172.55833 66.28438 172.05833Q66.90938 171.55833 67.84688 171.55833Q68.53438 171.55833 69.05 171.83958Q69.58125 172.12083 69.925 172.65208Q70.26875 173.16771 70.45625 173.91771Q70.64375 174.66771 70.64375 175.94896Q70.64375 177.46458 70.33125 178.38646Q70.03438 179.30833 69.40938 179.82396Q68.8 180.32396 67.84688 180.32396Q66.6125 180.32396 65.89375 179.43333Q65.05 178.37083 65.05 175.94896ZM66.12813 175.94896Q66.12813 178.05833 66.62813 178.76146Q67.12813 179.46458 67.84688 179.46458Q68.58125 179.46458 69.06563 178.76146Q69.56563 178.05833 69.56563 175.94896Q69.56563 173.82396 69.06563 173.13646Q68.58125 172.43333 67.83125 172.43333Q67.1125 172.43333 66.675 173.04271Q66.12813 173.82396 66.12813 175.94896Z" fill-rule="nonzero"/><path fill="#000000" d="M58.05 115.78438L59.1125 115.64375Q59.284374 116.53438 59.721874 116.94063Q60.159374 117.33125 60.784374 117.33125Q61.534374 117.33125 62.05 116.81563Q62.565624 116.3 62.565624 115.53438Q62.565624 114.81563 62.08125 114.34688Q61.6125 113.8625 60.878124 113.8625Q60.58125 113.8625 60.128124 113.9875L60.253124 113.05Q60.3625 113.06563 60.425 113.06563Q61.096874 113.06563 61.628124 112.72188Q62.175 112.3625 62.175 111.62813Q62.175 111.05 61.784374 110.675Q61.39375 110.28438 60.76875 110.28438Q60.159374 110.28438 59.7375 110.675Q59.33125 111.06563 59.221874 111.83125L58.159374 111.64375Q58.346874 110.59688 59.034374 110.01875Q59.721874 109.425 60.7375 109.425Q61.440624 109.425 62.034374 109.7375Q62.628124 110.03438 62.940624 110.55Q63.253124 111.06563 63.253124 111.65938Q63.253124 112.20625 62.95625 112.675Q62.659374 113.12813 62.08125 113.39375Q62.83125 113.56563 63.253124 114.12813Q63.675 114.675 63.675 115.51875Q63.675 116.64375 62.846874 117.425Q62.034374 118.20625 60.784374 118.20625Q59.659374 118.20625 58.909374 117.53438Q58.159374 116.84688 58.05 115.78438ZM65.05 113.81563Q65.05 112.28438 65.3625 111.3625Q65.675 110.425 66.28438 109.925Q66.90938 109.425 67.84688 109.425Q68.53438 109.425 69.05 109.70625Q69.58125 109.9875 69.925 110.51875Q70.26875 111.03438 70.45625 111.78438Q70.64375 112.53438 70.64375 113.81563Q70.64375 115.33125 70.33125 116.25313Q70.03438 117.175 69.40938 117.69063Q68.8 118.19063 67.84688 118.19063Q66.6125 118.19063 65.89375 117.3Q65.05 116.2375 65.05 113.81563ZM66.12813 113.81563Q66.12813 115.925 66.62813 116.62813Q67.12813 117.33125 67.84688 117.33125Q68.58125 117.33125 69.06563 116.62813Q69.56563 115.925 69.56563 113.81563Q69.56563 111.69063 69.06563 111.00313Q68.58125 110.3 67.83125 110.3Q67.1125 110.3 66.675 110.90938Q66.12813 111.69063 66.12813 113.81563Z" fill-rule="nonzero"/><path fill="#000000" d="M61.425 55.916668L61.425 53.854168L57.70625 53.854168L57.70625 52.885418L61.628124 47.322918L62.4875 47.322918L62.4875 52.885418L63.64375 52.885418L63.64375 53.854168L62.4875 53.854168L62.4875 55.916668L61.425 55.916668ZM61.425 52.885418L61.425 49.026043L58.7375 52.885418L61.425 52.885418ZM65.05 51.682293Q65.05 50.151043 65.3625 49.229168Q65.675 48.291668 66.28438 47.791668Q66.90938 47.291668 67.84688 47.291668Q68.53438 47.291668 69.05 47.572918Q69.58125 47.854168 69.925 48.385418Q70.26875 48.901043 70.45625 49.651043Q70.64375 50.401043 70.64375 51.682293Q70.64375 53.197918 70.33125 54.119793Q70.03438 55.041668 69.40938 55.557293Q68.8 56.057293 67.84688 56.057293Q66.6125 56.057293 65.89375 55.166668Q65.05 54.104168 65.05 51.682293ZM66.12813 51.682293Q66.12813 53.791668 66.62813 54.494793Q67.12813 55.197918 67.84688 55.197918Q68.58125 55.197918 69.06563 54.494793Q69.56563 53.791668 69.56563 51.682293Q69.56563 49.557293 69.06563 48.869793Q68.58125 48.166668 67.83125 48.166668Q67.1125 48.166668 66.675 48.776043Q66.12813 49.557293 66.12813 51.682293Z" fill-rule="nonzero"/><path fill="#000000" d="M125.40875 317.45L124.36188 317.45L124.36188 310.73126Q123.97125 311.09064 123.34625 311.46564Q122.73688 311.825 122.2525 311.9969L122.2525 310.98126Q123.1275 310.5594 123.78375 309.98126Q124.45563 309.3875 124.73688 308.825L125.40875 308.825L125.40875 317.45ZM128.44 313.21564Q128.44 311.6844 128.7525 310.7625Q129.065 309.825 129.67438 309.325Q130.29938 308.825 131.23688 308.825Q131.92438 308.825 132.44 309.10626Q132.97125 309.3875 133.315 309.91876Q133.65875 310.4344 133.84625 311.1844Q134.03375 311.9344 134.03375 313.21564Q134.03375 314.73126 133.72125 315.65314Q133.42438 316.575 132.79938 317.09064Q132.19 317.59064 131.23688 317.59064Q130.0025 317.59064 129.28375 316.7Q128.44 315.6375 128.44 313.21564ZM129.51813 313.21564Q129.51813 315.325 130.01813 316.02814Q130.51813 316.73126 131.23688 316.73126Q131.97125 316.73126 132.45563 316.02814Q132.95563 315.325 132.95563 313.21564Q132.95563 311.09064 132.45563 310.40314Q131.97125 309.7 131.22125 309.7Q130.5025 309.7 130.065 310.3094Q129.51813 311.09064 129.51813 313.21564Z" fill-rule="nonzero"/><path fill="#000000" d="M227.76688 316.4344L227.76688 317.45L222.07938 317.45Q222.07938 317.075 222.20438 316.71564Q222.42313 316.1375 222.89188 315.575Q223.37625 315.0125 224.2825 314.27814Q225.68875 313.1219 226.17313 312.45Q226.67313 311.77814 226.67313 311.1844Q226.67313 310.5594 226.22 310.1375Q225.76688 309.7 225.04813 309.7Q224.2825 309.7 223.82938 310.15314Q223.37625 310.60626 223.36063 311.41876L222.2825 311.3094Q222.39188 310.09064 223.11063 309.46564Q223.845 308.825 225.07938 308.825Q226.31375 308.825 227.0325 309.5125Q227.75125 310.2 227.75125 311.21564Q227.75125 311.73126 227.5325 312.23126Q227.32938 312.71564 226.82938 313.27814Q226.345 313.825 225.22 314.77814Q224.26688 315.575 223.98563 315.8719Q223.72 316.15314 223.54813 316.4344L227.76688 316.4344ZM229.22 313.21564Q229.22 311.6844 229.5325 310.7625Q229.845 309.825 230.45438 309.325Q231.07938 308.825 232.01688 308.825Q232.70438 308.825 233.22 309.10626Q233.75125 309.3875 234.095 309.91876Q234.43875 310.4344 234.62625 311.1844Q234.81375 311.9344 234.81375 313.21564Q234.81375 314.73126 234.50125 315.65314Q234.20438 316.575 233.57938 317.09064Q232.97 317.59064 232.01688 317.59064Q230.7825 317.59064 230.06375 316.7Q229.22 315.6375 229.22 313.21564ZM230.29813 313.21564Q230.29813 315.325 230.79813 316.02814Q231.29813 316.73126 232.01688 316.73126Q232.75125 316.73126 233.23563 316.02814Q233.73563 315.325 233.73563 313.21564Q233.73563 311.09064 233.23563 310.40314Q232.75125 309.7 232.00125 309.7Q231.2825 309.7 230.845 310.3094Q230.29813 311.09064 230.29813 313.21564Z" fill-rule="nonzero"/><path fill="#000000" d="M323.0 315.1844L324.0625 315.04376Q324.23438 315.9344 324.67188 316.34064Q325.10938 316.73126 325.73438 316.73126Q326.48438 316.73126 327.0 316.21564Q327.51562 315.7 327.51562 314.9344Q327.51562 314.21564 327.03125 313.7469Q326.5625 313.2625 325.82812 313.2625Q325.53125 313.2625 325.07812 313.3875L325.20312 312.45Q325.3125 312.46564 325.375 312.46564Q326.04688 312.46564 326.57812 312.1219Q327.125 311.7625 327.125 311.02814Q327.125 310.45 326.73438 310.075Q326.34375 309.6844 325.71875 309.6844Q325.10938 309.6844 324.6875 310.075Q324.28125 310.46564 324.17188 311.23126L323.10938 311.04376Q323.29688 309.9969 323.98438 309.41876Q324.67188 308.825 325.6875 308.825Q326.39062 308.825 326.98438 309.1375Q327.57812 309.4344 327.89062 309.95Q328.20312 310.46564 328.20312 311.0594Q328.20312 311.60626 327.90625 312.075Q327.60938 312.52814 327.03125 312.79376Q327.78125 312.96564 328.20312 313.52814Q328.625 314.075 328.625 314.91876Q328.625 316.04376 327.79688 316.825Q326.98438 317.60626 325.73438 317.60626Q324.60938 317.60626 323.85938 316.9344Q323.10938 316.2469 323.0 315.1844ZM330.0 313.21564Q330.0 311.6844 330.3125 310.7625Q330.625 309.825 331.23438 309.325Q331.85938 308.825 332.79688 308.825Q333.48438 308.825 334.0 309.10626Q334.53125 309.3875 334.875 309.91876Q335.21875 310.4344 335.40625 311.1844Q335.59375 311.9344 335.59375 313.21564Q335.59375 314.73126 335.28125 315.65314Q334.98438 316.575 334.35938 317.09064Q333.75 317.59064 332.79688 317.59064Q331.5625 317.59064 330.84375 316.7Q330.0 315.6375 330.0 313.21564ZM331.07812 313.21564Q331.07812 315.325 331.57812 316.02814Q332.07812 316.73126 332.79688 316.73126Q333.53125 316.73126 334.01562 316.02814Q334.51562 315.325 334.51562 313.21564Q334.51562 311.09064 334.01562 310.40314Q333.53125 309.7 332.78125 309.7Q332.0625 309.7 331.625 310.3094Q331.07812 311.09064 331.07812 313.21564Z" fill-rule="nonzero"/><path fill="#000000" d="M423.78 315.2L424.88937 315.10626Q425.01437 315.91876 425.45187 316.325Q425.905 316.73126 426.54562 316.73126Q427.29562 316.73126 427.82687 316.15314Q428.35812 315.575 428.35812 314.6375Q428.35812 313.73126 427.8425 313.21564Q427.3425 312.6844 426.51437 312.6844Q426.01437 312.6844 425.5925 312.91876Q425.18625 313.15314 424.95187 313.5125L423.9675 313.3875L424.79562 308.98126L429.07687 308.98126L429.07687 309.98126L425.63937 309.98126L425.18625 312.29376Q425.95187 311.7469 426.79562 311.7469Q427.92062 311.7469 428.68625 312.52814Q429.4675 313.3094 429.4675 314.54376Q429.4675 315.7 428.79562 316.5594Q427.9675 317.59064 426.54562 317.59064Q425.37375 317.59064 424.62375 316.9344Q423.88937 316.27814 423.78 315.2ZM430.78 313.21564Q430.78 311.6844 431.0925 310.7625Q431.405 309.825 432.01437 309.325Q432.63937 308.825 433.57687 308.825Q434.26437 308.825 434.78 309.10626Q435.31125 309.3875 435.655 309.91876Q435.99875 310.4344 436.18625 311.1844Q436.37375 311.9344 436.37375 313.21564Q436.37375 314.73126 436.06125 315.65314Q435.76437 316.575 435.13937 317.09064Q434.53 317.59064 433.57687 317.59064Q432.3425 317.59064 431.62375 316.7Q430.78 315.6375 430.78 313.21564ZM431.85812 313.21564Q431.85812 315.325 432.35812 316.02814Q432.85812 316.73126 433.57687 316.73126Q434.31125 316.73126 434.79562 316.02814Q435.29562 315.325 435.29562 313.21564Q435.29562 311.09064 434.79562 310.40314Q434.31125 309.7 433.56125 309.7Q432.8425 309.7 432.405 310.3094Q431.85812 311.09064 431.85812 313.21564Z" fill-rule="nonzero"/><path fill="#000000" d="M525.02875 317.45L523.9819 317.45L523.9819 310.73126Q523.59125 311.09064 522.96625 311.46564Q522.3569 311.825 521.8725 311.9969L521.8725 310.98126Q522.7475 310.5594 523.40375 309.98126Q524.0756 309.3875 524.3569 308.825L525.02875 308.825L525.02875 317.45ZM528.06 313.21564Q528.06 311.6844 528.3725 310.7625Q528.685 309.825 529.2944 309.325Q529.9194 308.825 530.8569 308.825Q531.5444 308.825 532.06 309.10626Q532.59125 309.3875 532.935 309.91876Q533.27875 310.4344 533.46625 311.1844Q533.65375 311.9344 533.65375 313.21564Q533.65375 314.73126 533.34125 315.65314Q533.0444 316.575 532.4194 317.09064Q531.81 317.59064 530.8569 317.59064Q529.6225 317.59064 528.90375 316.7Q528.06 315.6375 528.06 313.21564ZM529.1381 313.21564Q529.1381 315.325 529.6381 316.02814Q530.1381 316.73126 530.8569 316.73126Q531.59125 316.73126 532.0756 316.02814Q532.5756 315.325 532.5756 313.21564Q532.5756 311.09064 532.0756 310.40314Q531.59125 309.7 530.84125 309.7Q530.1225 309.7 529.685 310.3094Q529.1381 311.09064 529.1381 313.21564ZM535.06 313.21564Q535.06 311.6844 535.3725 310.7625Q535.685 309.825 536.2944 309.325Q536.9194 308.825 537.8569 308.825Q538.5444 308.825 539.06 309.10626Q539.59125 309.3875 539.935 309.91876Q540.27875 310.4344 540.46625 311.1844Q540.65375 311.9344 540.65375 313.21564Q540.65375 314.73126 540.34125 315.65314Q540.0444 316.575 539.4194 317.09064Q538.81 317.59064 537.8569 317.59064Q536.6225 317.59064 535.90375 316.7Q535.06 315.6375 535.06 313.21564ZM536.1381 313.21564Q536.1381 315.325 536.6381 316.02814Q537.1381 316.73126 537.8569 316.73126Q538.59125 316.73126 539.0756 316.02814Q539.5756 315.325 539.5756 313.21564Q539.5756 311.09064 539.0756 310.40314Q538.59125 309.7 537.84125 309.7Q537.1225 309.7 536.685 310.3094Q536.1381 311.09064 536.1381 313.21564Z" fill-rule="nonzero"/><path stroke="#4285f4" stroke-width="4.0" stroke-linecap="butt" d="M214.5 25.55L226.5 25.55" fill-rule="nonzero"/><path fill="#1a1a1a" d="M235.375 29.55L235.375 20.95625L238.60938 20.95625Q239.59375 20.95625 240.1875 21.221874Q240.78125 21.4875 241.10938 22.034374Q241.45312 22.565624 241.45312 23.159374Q241.45312 23.70625 241.15625 24.190624Q240.85938 24.675 240.25 24.971874Q241.03125 25.20625 241.4375 25.76875Q241.85938 26.315624 241.85938 27.065624Q241.85938 27.659374 241.60938 28.190624Q241.35938 28.70625 240.98438 28.9875Q240.60938 29.26875 240.03125 29.409374Q239.46875 29.55 238.65625 29.55L235.375 29.55ZM236.51562 24.565624L238.375 24.565624Q239.125 24.565624 239.45312 24.471874Q239.89062 24.346874 240.10938 24.05Q240.32812 23.7375 240.32812 23.284374Q240.32812 22.8625 240.125 22.534374Q239.92188 22.20625 239.53125 22.096874Q239.15625 21.971874 238.23438 21.971874L236.51562 21.971874L236.51562 24.565624ZM236.51562 28.534374L238.65625 28.534374Q239.20312 28.534374 239.42188 28.4875Q239.82812 28.425 240.07812 28.26875Q240.34375 28.096874 240.51562 27.784374Q240.6875 27.471874 240.6875 27.065624Q240.6875 26.58125 240.4375 26.221874Q240.20312 25.8625 239.76562 25.721874Q239.32812 25.58125 238.5 25.58125L236.51562 25.58125L236.51562 28.534374ZM247.35938 28.784374Q246.76562 29.284374 246.21875 29.4875Q245.6875 29.690624 245.0625 29.690624Q244.03125 29.690624 243.48438 29.190624Q242.9375 28.690624 242.9375 27.909374Q242.9375 27.45625 243.14062 27.08125Q243.34375 26.690624 243.6875 26.471874Q244.03125 26.2375 244.45312 26.128124Q244.75 26.034374 245.39062 25.95625Q246.65625 25.815624 247.26562 25.596874Q247.26562 25.378124 247.26562 25.33125Q247.26562 24.675 246.96875 24.409374Q246.5625 24.065624 245.76562 24.065624Q245.03125 24.065624 244.67188 24.33125Q244.3125 24.58125 244.14062 25.2375L243.10938 25.096874Q243.25 24.440624 243.57812 24.034374Q243.90625 23.628124 244.51562 23.409374Q245.125 23.190624 245.92188 23.190624Q246.71875 23.190624 247.21875 23.378124Q247.71875 23.565624 247.95312 23.846874Q248.1875 24.128124 248.28125 24.565624Q248.32812 24.83125 248.32812 25.534374L248.32812 26.940624Q248.32812 28.409374 248.39062 28.8Q248.46875 29.190624 248.67188 29.55L247.5625 29.55Q247.40625 29.221874 247.35938 28.784374ZM247.26562 26.425Q246.6875 26.659374 245.54688 26.83125Q244.89062 26.925 244.625 27.05Q244.35938 27.159374 244.20312 27.378124Q244.0625 27.596874 244.0625 27.878124Q244.0625 28.3 244.375 28.58125Q244.70312 28.8625 245.3125 28.8625Q245.92188 28.8625 246.39062 28.596874Q246.875 28.33125 247.09375 27.8625Q247.26562 27.503124 247.26562 26.815624L247.26562 26.425ZM252.59375 28.6125L252.75 29.534374Q252.29688 29.628124 251.95312 29.628124Q251.375 29.628124 251.0625 29.45625Q250.75 29.26875 250.60938 28.971874Q250.48438 28.675 250.48438 27.721874L250.48438 24.14375L249.71875 24.14375L249.71875 23.33125L250.48438 23.33125L250.48438 21.784374L251.53125 21.159374L251.53125 23.33125L252.59375 23.33125L252.59375 24.14375L251.53125 24.14375L251.53125 27.784374Q251.53125 28.2375 251.57812 28.3625Q251.64062 28.4875 251.76562 28.565624Q251.89062 28.64375 252.125 28.64375Q252.3125 28.64375 252.59375 28.6125ZM257.35938 27.26875L258.39062 27.409374Q258.21875 28.471874 257.51562 29.08125Q256.8125 29.690624 255.79688 29.690624Q254.51562 29.690624 253.73438 28.8625Q252.96875 28.01875 252.96875 26.45625Q252.96875 25.45625 253.29688 24.70625Q253.64062 23.940624 254.3125 23.565624Q255.0 23.190624 255.8125 23.190624Q256.8125 23.190624 257.45312 23.70625Q258.10938 24.20625 258.29688 25.159374L257.26562 25.315624Q257.125 24.690624 256.75 24.378124Q256.375 24.05 255.84375 24.05Q255.04688 24.05 254.54688 24.628124Q254.04688 25.190624 254.04688 26.425Q254.04688 27.690624 254.53125 28.253124Q255.01562 28.815624 255.78125 28.815624Q256.40625 28.815624 256.8125 28.440624Q257.23438 28.065624 257.35938 27.26875ZM259.29688 29.55L259.29688 20.95625L260.34375 20.95625L260.34375 24.034374Q261.07812 23.190624 262.20312 23.190624Q262.90625 23.190624 263.40625 23.471874Q263.92188 23.7375 264.14062 24.221874Q264.35938 24.690624 264.35938 25.6125L264.35938 29.55L263.3125 29.55L263.3125 25.6125Q263.3125 24.815624 262.96875 24.45625Q262.625 24.096874 262.0 24.096874Q261.53125 24.096874 261.10938 24.346874Q260.70312 24.58125 260.51562 25.003124Q260.34375 25.409374 260.34375 26.14375L260.34375 29.55L259.29688 29.55ZM266.29688 22.175L266.29688 20.95625L267.35938 20.95625L267.35938 22.175L266.29688 22.175ZM266.29688 29.55L266.29688 23.33125L267.35938 23.33125L267.35938 29.55L266.29688 29.55ZM269.29688 29.55L269.29688 23.33125L270.23438 23.33125L270.23438 24.20625Q270.92188 23.190624 272.21875 23.190624Q272.78125 23.190624 273.25 23.39375Q273.73438 23.596874 273.96875 23.925Q274.20312 24.253124 274.29688 24.690624Q274.34375 24.9875 274.34375 25.721874L274.34375 29.55L273.29688 29.55L273.29688 25.76875Q273.29688 25.1125 273.17188 24.8Q273.04688 24.4875 272.73438 24.3Q272.42188 24.096874 272.0 24.096874Q271.32812 24.096874 270.82812 24.534374Q270.34375 24.95625 270.34375 26.14375L270.34375 29.55L269.29688 29.55ZM276.09375 30.065624L277.125 30.221874Q277.1875 30.690624 277.48438 30.909374Q277.875 31.20625 278.54688 31.20625Q279.28125 31.20625 279.67188 30.909374Q280.07812 30.6125 280.21875 30.096874Q280.3125 29.76875 280.29688 28.7375Q279.60938 29.55 278.57812 29.55Q277.29688 29.55 276.59375 28.628124Q275.89062 27.690624 275.89062 26.409374Q275.89062 25.51875 276.20312 24.76875Q276.53125 24.003124 277.14062 23.596874Q277.75 23.190624 278.57812 23.190624Q279.6875 23.190624 280.40625 24.08125L280.40625 23.33125L281.375 23.33125L281.375 28.70625Q281.375 30.159374 281.07812 30.76875Q280.78125 31.378124 280.14062 31.721874Q279.5 32.08125 278.5625 32.08125Q277.45312 32.08125 276.76562 31.58125Q276.07812 31.08125 276.09375 30.065624ZM276.96875 26.33125Q276.96875 27.55 277.45312 28.1125Q277.9375 28.675 278.67188 28.675Q279.40625 28.675 279.89062 28.1125Q280.39062 27.55 280.39062 26.3625Q280.39062 25.221874 279.875 24.64375Q279.375 24.065624 278.65625 24.065624Q277.95312 24.065624 277.45312 24.64375Q276.96875 25.20625 276.96875 26.33125Z" fill-rule="nonzero"/><path stroke="#ea4335" stroke-width="4.0" stroke-linecap="butt" d="M298.5 25.55L310.5 25.55" fill-rule="nonzero"/><path fill="#1a1a1a" d="M319.42188 29.55L319.42188 20.95625L320.57812 20.95625L325.09375 27.70625L325.09375 20.95625L326.1875 20.95625L326.1875 29.55L325.01562 29.55L320.5 22.8L320.5 29.55L319.42188 29.55ZM327.90625 26.440624Q327.90625 24.70625 328.85938 23.878124Q329.65625 23.190624 330.8125 23.190624Q332.09375 23.190624 332.90625 24.034374Q333.73438 24.8625 333.73438 26.346874Q333.73438 27.55 333.375 28.2375Q333.01562 28.925 332.3125 29.315624Q331.625 29.690624 330.8125 29.690624Q329.51562 29.690624 328.70312 28.8625Q327.90625 28.01875 327.90625 26.440624ZM328.98438 26.440624Q328.98438 27.628124 329.5 28.221874Q330.03125 28.815624 330.8125 28.815624Q331.60938 28.815624 332.125 28.221874Q332.64062 27.628124 332.64062 26.409374Q332.64062 25.253124 332.10938 24.659374Q331.59375 24.065624 330.8125 24.065624Q330.03125 24.065624 329.5 24.659374Q328.98438 25.2375 328.98438 26.440624ZM338.375 29.55L338.375 20.95625L341.60938 20.95625Q342.59375 20.95625 343.1875 21.221874Q343.78125 21.4875 344.10938 22.034374Q344.45312 22.565624 344.45312 23.159374Q344.45312 23.70625 344.15625 24.190624Q343.85938 24.675 343.25 24.971874Q344.03125 25.20625 344.4375 25.76875Q344.85938 26.315624 344.85938 27.065624Q344.85938 27.659374 344.60938 28.190624Q344.35938 28.70625 343.98438 28.9875Q343.60938 29.26875 343.03125 29.409374Q342.46875 29.55 341.65625 29.55L338.375 29.55ZM339.51562 24.565624L341.375 24.565624Q342.125 24.565624 342.45312 24.471874Q342.89062 24.346874 343.10938 24.05Q343.32812 23.7375 343.32812 23.284374Q343.32812 22.8625 343.125 22.534374Q342.92188 22.20625 342.53125 22.096874Q342.15625 21.971874 341.23438 21.971874L339.51562 21.971874L339.51562 24.565624ZM339.51562 28.534374L341.65625 28.534374Q342.20312 28.534374 342.42188 28.4875Q342.82812 28.425 343.07812 28.26875Q343.34375 28.096874 343.51562 27.784374Q343.6875 27.471874 343.6875 27.065624Q343.6875 26.58125 343.4375 26.221874Q343.20312 25.8625 342.76562 25.721874Q342.32812 25.58125 341.5 25.58125L339.51562 25.58125L339.51562 28.534374ZM350.35938 28.784374Q349.76562 29.284374 349.21875 29.4875Q348.6875 29.690624 348.0625 29.690624Q347.03125 29.690624 346.48438 29.190624Q345.9375 28.690624 345.9375 27.909374Q345.9375 27.45625 346.14062 27.08125Q346.34375 26.690624 346.6875 26.471874Q347.03125 26.2375 347.45312 26.128124Q347.75 26.034374 348.39062 25.95625Q349.65625 25.815624 350.26562 25.596874Q350.26562 25.378124 350.26562 25.33125Q350.26562 24.675 349.96875 24.409374Q349.5625 24.065624 348.76562 24.065624Q348.03125 24.065624 347.67188 24.33125Q347.3125 24.58125 347.14062 25.2375L346.10938 25.096874Q346.25 24.440624 346.57812 24.034374Q346.90625 23.628124 347.51562 23.409374Q348.125 23.190624 348.92188 23.190624Q349.71875 23.190624 350.21875 23.378124Q350.71875 23.565624 350.95312 23.846874Q351.1875 24.128124 351.28125 24.565624Q351.32812 24.83125 351.32812 25.534374L351.32812 26.940624Q351.32812 28.409374 351.39062 28.8Q351.46875 29.190624 351.67188 29.55L350.5625 29.55Q350.40625 29.221874 350.35938 28.784374ZM350.26562 26.425Q349.6875 26.659374 348.54688 26.83125Q347.89062 26.925 347.625 27.05Q347.35938 27.159374 347.20312 27.378124Q347.0625 27.596874 347.0625 27.878124Q347.0625 28.3 347.375 28.58125Q347.70312 28.8625 348.3125 28.8625Q348.92188 28.8625 349.39062 28.596874Q349.875 28.33125 350.09375 27.8625Q350.26562 27.503124 350.26562 26.815624L350.26562 26.425ZM355.59375 28.6125L355.75 29.534374Q355.29688 29.628124 354.95312 29.628124Q354.375 29.628124 354.0625 29.45625Q353.75 29.26875 353.60938 28.971874Q353.48438 28.675 353.48438 27.721874L353.48438 24.14375L352.71875 24.14375L352.71875 23.33125L353.48438 23.33125L353.48438 21.784374L354.53125 21.159374L354.53125 23.33125L355.59375 23.33125L355.59375 24.14375L354.53125 24.14375L354.53125 27.784374Q354.53125 28.2375 354.57812 28.3625Q354.64062 28.4875 354.76562 28.565624Q354.89062 28.64375 355.125 28.64375Q355.3125 28.64375 355.59375 28.6125ZM360.35938 27.26875L361.39062 27.409374Q361.21875 28.471874 360.51562 29.08125Q359.8125 29.690624 358.79688 29.690624Q357.51562 29.690624 356.73438 28.8625Q355.96875 28.01875 355.96875 26.45625Q355.96875 25.45625 356.29688 24.70625Q356.64062 23.940624 357.3125 23.565624Q358.0 23.190624 358.8125 23.190624Q359.8125 23.190624 360.45312 23.70625Q361.10938 24.20625 361.29688 25.159374L360.26562 25.315624Q360.125 24.690624 359.75 24.378124Q359.375 24.05 358.84375 24.05Q358.04688 24.05 357.54688 24.628124Q357.04688 25.190624 357.04688 26.425Q357.04688 27.690624 357.53125 28.253124Q358.01562 28.815624 358.78125 28.815624Q359.40625 28.815624 359.8125 28.440624Q360.23438 28.065624 360.35938 27.26875ZM362.29688 29.55L362.29688 20.95625L363.34375 20.95625L363.34375 24.034374Q364.07812 23.190624 365.20312 23.190624Q365.90625 23.190624 366.40625 23.471874Q366.92188 23.7375 367.14062 24.221874Q367.35938 24.690624 367.35938 25.6125L367.35938 29.55L366.3125 29.55L366.3125 25.6125Q366.3125 24.815624 365.96875 24.45625Q365.625 24.096874 365.0 24.096874Q364.53125 24.096874 364.10938 24.346874Q363.70312 24.58125 363.51562 25.003124Q363.34375 25.409374 363.34375 26.14375L363.34375 29.55L362.29688 29.55ZM369.29688 22.175L369.29688 20.95625L370.35938 20.95625L370.35938 22.175L369.29688 22.175ZM369.29688 29.55L369.29688 23.33125L370.35938 23.33125L370.35938 29.55L369.29688 29.55ZM372.29688 29.55L372.29688 23.33125L373.23438 23.33125L373.23438 24.20625Q373.92188 23.190624 375.21875 23.190624Q375.78125 23.190624 376.25 23.39375Q376.73438 23.596874 376.96875 23.925Q377.20312 24.253124 377.29688 24.690624Q377.34375 24.9875 377.34375 25.721874L377.34375 29.55L376.29688 29.55L376.29688 25.76875Q376.29688 25.1125 376.17188 24.8Q376.04688 24.4875 375.73438 24.3Q375.42188 24.096874 375.0 24.096874Q374.32812 24.096874 373.82812 24.534374Q373.34375 24.95625 373.34375 26.14375L373.34375 29.55L372.29688 29.55ZM379.09375 30.065624L380.125 30.221874Q380.1875 30.690624 380.48438 30.909374Q380.875 31.20625 381.54688 31.20625Q382.28125 31.20625 382.67188 30.909374Q383.07812 30.6125 383.21875 30.096874Q383.3125 29.76875 383.29688 28.7375Q382.60938 29.55 381.57812 29.55Q380.29688 29.55 379.59375 28.628124Q378.89062 27.690624 378.89062 26.409374Q378.89062 25.51875 379.20312 24.76875Q379.53125 24.003124 380.14062 23.596874Q380.75 23.190624 381.57812 23.190624Q382.6875 23.190624 383.40625 24.08125L383.40625 23.33125L384.375 23.33125L384.375 28.70625Q384.375 30.159374 384.07812 30.76875Q383.78125 31.378124 383.14062 31.721874Q382.5 32.08125 381.5625 32.08125Q380.45312 32.08125 379.76562 31.58125Q379.07812 31.08125 379.09375 30.065624ZM379.96875 26.33125Q379.96875 27.55 380.45312 28.1125Q380.9375 28.675 381.67188 28.675Q382.40625 28.675 382.89062 28.1125Q383.39062 27.55 383.39062 26.3625Q383.39062 25.221874 382.875 24.64375Q382.375 24.065624 381.65625 24.065624Q380.95312 24.065624 380.45312 24.64375Q379.96875 25.20625 379.96875 26.33125Z" fill-rule="nonzero"/></svg>