<svg version="1.1" viewBox="0.0 0.0 725.0 448.0" fill="none" stroke="none" stroke-linecap="square" stroke-miterlimit="10" width="725" height="448" xmlns:xlink="http://www.w3.org/1999/xlink" xmlns="http://www.w3.org/2000/svg"><path fill="#ffffff" d="M0 0L725.0 0L725.0 448.0L0 448.0L0 0Z" fill-rule="nonzero"/><path stroke="#333333" stroke-width="1.0" stroke-linecap="butt" d="M81.5 373.5L702.5 373.5" fill-rule="nonzero"/><path stroke="#cccccc" stroke-width="1.0" stroke-linecap="butt" d="M81.5 310.5L702.5 310.5" fill-rule="nonzero"/><path stroke="#cccccc" stroke-width="1.0" stroke-linecap="butt" d="M81.5 247.5L702.5 247.5" fill-rule="nonzero"/><path stroke="#cccccc" stroke-width="1.0" stroke-linecap="butt" d="M81.5 184.5L702.5 184.5" fill-rule="nonzero"/><path stroke="#cccccc" stroke-width="1.0" stroke-linecap="butt" d="M81.5 121.5L702.5 121.5" fill-rule="nonzero"/><path stroke="#cccccc" stroke-width="1.0" stroke-linecap="butt" d="M81.5 58.5L702.5 58.5" fill-rule="nonzero"/><clipPath id="id_0"><path d="M81.4 58.333332L702.6 58.333332L702.6 373.6L81.4 373.6L81.4 58.333332Z" clip-rule="nonzero"/></clipPath><path stroke="#ea4335" stroke-width="2.0" stroke-linecap="butt" clip-path="url(#id_0)" d="M133.16667 355.82608C133.16667 355.82608 202.18889 353.61755 236.7 352.5244C271.21112 351.43124 305.72223 350.99966 340.23334 349.2671C374.74445 347.53452 409.25555 346.24796 443.76666 342.1289C478.27777 338.0099 512.7889 334.26144 547.3 324.55292C581.8111 314.8444 650.8333 283.87775 650.8333 283.87775" fill-rule="nonzero"/><path stroke="#4285f4" stroke-width="2.0" stroke-linecap="butt" clip-path="url(#id_0)" d="M133.16667 341.07053C133.16667 341.07053 202.18889 334.04776 236.7 330.5405C271.21112 327.0332 305.72223 325.46194 340.23334 320.02682C374.74445 314.5917 409.25555 308.7109 443.76666 297.92978C478.27777 287.14865 512.7889 290.0656 547.3 255.34006C581.8111 220.61452 650.8333 89.57654 650.8333 89.57654" fill-rule="nonzero"/><path fill="#000000" fill-opacity="0.0" clip-path="url(#id_0)" d="M136.16667 355.82608C136.16667 357.4829 134.82352 358.82608 133.16667 358.82608C131.50981 358.82608 130.16667 357.4829 130.16667 355.82608C130.16667 354.16922 131.50981 352.82608 133.16667 352.82608C134.82352 352.82608 136.16667 354.16922 136.16667 355.82608Z" fill-rule="nonzero"/><path fill="#000000" fill-opacity="0.0" clip-path="url(#id_0)" d="M239.7 352.5244C239.7 354.18124 238.35686 355.5244 236.7 355.5244C235.04315 355.5244 233.7 354.18124 233.7 352.5244C233.7 350.86755 235.04315 349.5244 236.7 349.5244C238.35686 349.5244 239.7 350.86755 239.7 352.5244Z" fill-rule="nonzero"/><path fill="#000000" fill-opacity="0.0" clip-path="url(#id_0)" d="M343.23334 349.2671C343.23334 350.92395 341.8902 352.2671 340.23334 352.2671C338.57648 352.2671 337.23334 350.92395 337.23334 349.2671C337.23334 347.61023 338.57648 346.2671 340.23334 346.2671C341.8902 346.2671 343.23334 347.61023 343.23334 349.2671Z" fill-rule="nonzero"/><path fill="#000000" fill-opacity="0.0" clip-path="url(#id_0)" d="M446.76666 342.1289C446.76666 343.78577 445.42352 345.1289 443.76666 345.1289C442.1098 345.1289 440.76666 343.78577 440.76666 342.1289C440.76666 340.47208 442.1098 339.1289 443.76666 339.1289C445.42352 339.1289 446.76666 340.47208 446.76666 342.1289Z" fill-rule="nonzero"/><path fill="#000000" fill-opacity="0.0" clip-path="url(#id_0)" d="M550.3 324.55292C550.3 326.20978 548.95685 327.55292 547.3 327.55292C545.6431 327.55292 544.3 326.20978 544.3 324.55292C544.3 322.89606 545.6431 321.55292 547.3 321.55292C548.95685 321.55292 550.3 322.89606 550.3 324.55292Z" fill-rule="nonzero"/><path fill="#000000" fill-opacity="0.0" clip-path="url(#id_0)" d="M653.8333 283.87775C653.8333 285.5346 652.4902 286.87775 650.8333 286.87775C649.17645 286.87775 647.8333 285.5346 647.8333 283.87775C647.8333 282.2209 649.17645 280.87775 650.8333 280.87775C652.4902 280.87775 653.8333 282.2209 653.8333 283.87775Z" fill-rule="nonzero"/><path fill="#000000" fill-opacity="0.0" clip-path="url(#id_0)" d="M136.16667 341.07053C136.16667 342.7274 134.82352 344.07053 133.16667 344.07053C131.50981 344.07053 130.16667 342.7274 130.16667 341.07053C130.16667 339.4137 131.50981 338.07053 133.16667 338.07053C134.82352 338.07053 136.16667 339.4137 136.16667 341.07053Z" fill-rule="nonzero"/><path fill="#000000" fill-opacity="0.0" clip-path="url(#id_0)" d="M239.7 330.5405C239.7 332.19733 238.35686 333.5405 236.7 333.5405C235.04315 333.5405 233.7 332.19733 233.7 330.5405C233.7 328.88364 235.04315 327.5405 236.7 327.5405C238.35686 327.5405 239.7 328.88364 239.7 330.5405Z" fill-rule="nonzero"/><path fill="#000000" fill-opacity="0.0" clip-path="url(#id_0)" d="M343.23334 320.02682C343.23334 321.68365 341.8902 323.02682 340.23334 323.02682C338.57648 323.02682 337.23334 321.68365 337.23334 320.02682C337.23334 318.36996 338.57648 317.02682 340.23334 317.02682C341.8902 317.02682 343.23334 318.36996 343.23334 320.02682Z" fill-rule="nonzero"/><path fill="#000000" fill-opacity="0.0" clip-path="url(#id_0)" d="M446.76666 297.92978C446.76666 299.58664 445.42352 300.92978 443.76666 300.92978C442.1098 300.92978 440.76666 299.58664 440.76666 297.92978C440.76666 296.27292 442.1098 294.92978 443.76666 294.92978C445.42352 294.92978 446.76666 296.27292 446.76666 297.92978Z" fill-rule="nonzero"/><path fill="#000000" fill-opacity="0.0" clip-path="url(#id_0)" d="M550.3 255.34006C550.3 256.99692 548.95685 258.34006 547.3 258.34006C545.6431 258.34006 544.3 256.99692 544.3 255.34006C544.3 253.68321 545.6431 252.34006 547.3 252.34006C548.95685 252.34006 550.3 253.68321 550.3 255.34006Z" fill-rule="nonzero"/><path fill="#000000" fill-opacity="0.0" clip-path="url(#id_0)" d="M653.8333 89.57654C653.8333 91.2334 652.4902 92.57654 650.8333 92.57654C649.17645 92.57654 647.8333 91.2334 647.8333 89.57654C647.8333 87.919685 649.17645 86.57654 650.8333 86.57654C652.4902 86.57654 653.8333 87.919685 653.8333 89.57654Z" fill-rule="nonzero"/><path fill="#000000" d="M356.89062 422.6L356.89062 414.00626L358.60938 414.00626L360.64062 420.08438Q360.92188 420.94376 361.04688 421.36563Q361.1875 420.89688 361.5 419.99063L363.5625 414.00626L365.09375 414.00626L365.09375 422.6L364.0 422.6L364.0 415.4125L361.5 422.6L360.46875 422.6L357.98438 415.2875L357.98438 422.6L356.89062 422.6ZM370.04688 420.6L371.14062 420.725Q370.89062 421.67813 370.1875 422.20938Q369.48438 422.74063 368.40625 422.74063Q367.04688 422.74063 366.23438 421.89688Q365.4375 421.05313 365.4375 419.5375Q365.4375 417.975 366.25 417.11563Q367.0625 416.24063 368.34375 416.24063Q369.59375 416.24063 370.375 417.08438Q371.17188 417.92813 371.17188 419.475Q371.17188 419.56876 371.17188 419.75626L366.53125 419.75626Q366.59375 420.7875 367.10938 421.33438Q367.625 421.86563 368.40625 421.86563Q368.98438 421.86563 369.39062 421.56876Q369.8125 421.25626 370.04688 420.6ZM366.59375 418.89688L370.0625 418.89688Q370.0 418.1 369.67188 417.70938Q369.15625 417.1 368.35938 417.1Q367.625 417.1 367.125 417.58438Q366.64062 418.06876 366.59375 418.89688ZM375.09375 421.6625L375.25 422.58438Q374.79688 422.67813 374.45312 422.67813Q373.875 422.67813 373.5625 422.50626Q373.25 422.31876 373.10938 422.02188Q372.98438 421.725 372.98438 420.77188L372.98438 417.19376L372.21875 417.19376L372.21875 416.38126L372.98438 416.38126L372.98438 414.83438L374.03125 414.20938L374.03125 416.38126L375.09375 416.38126L375.09375 417.19376L374.03125 417.19376L374.03125 420.83438Q374.03125 421.2875 374.07812 421.4125Q374.14062 421.5375 374.26562 421.61563Q374.39062 421.69376 374.625 421.69376Q374.8125 421.69376 375.09375 421.6625ZM375.79688 422.6L375.79688 414.00626L376.84375 414.00626L376.84375 417.08438Q377.57812 416.24063 378.70312 416.24063Q379.40625 416.24063 379.90625 416.52188Q380.42188 416.7875 380.64062 417.27188Q380.85938 417.74063 380.85938 418.6625L380.85938 422.6L379.8125 422.6L379.8125 418.6625Q379.8125 417.86563 379.46875 417.50626Q379.125 417.14688 378.5 417.14688Q378.03125 417.14688 377.60938 417.39688Q377.20312 417.63126 377.01562 418.05313Q376.84375 418.45938 376.84375 419.19376L376.84375 422.6L375.79688 422.6ZM382.40625 419.49063Q382.40625 417.75626 383.35938 416.92813Q384.15625 416.24063 385.3125 416.24063Q386.59375 416.24063 387.40625 417.08438Q388.23438 417.9125 388.23438 419.39688Q388.23438 420.6 387.875 421.2875Q387.51562 421.975 386.8125 422.36563Q386.125 422.74063 385.3125 422.74063Q384.01562 422.74063 383.20312 421.9125Q382.40625 421.06876 382.40625 419.49063ZM383.48438 419.49063Q383.48438 420.67813 384.0 421.27188Q384.53125 421.86563 385.3125 421.86563Q386.10938 421.86563 386.625 421.27188Q387.14062 420.67813 387.14062 419.45938Q387.14062 418.30313 386.60938 417.70938Q386.09375 417.11563 385.3125 417.11563Q384.53125 417.11563 384.0 417.70938Q383.48438 418.2875 383.48438 419.49063ZM393.82812 422.6L393.82812 421.81876Q393.23438 422.74063 392.09375 422.74063Q391.34375 422.74063 390.71875 422.33438Q390.09375 421.9125 389.75 421.17813Q389.40625 420.44376 389.40625 419.49063Q389.40625 418.56876 389.71875 417.80313Q390.03125 417.0375 390.65625 416.64688Q391.28125 416.24063 392.04688 416.24063Q392.60938 416.24063 393.04688 416.475Q393.48438 416.70938 393.76562 417.08438L393.76562 414.00626L394.8125 414.00626L394.8125 422.6L393.82812 422.6ZM390.5 419.49063Q390.5 420.69376 391.0 421.2875Q391.5 421.86563 392.1875 421.86563Q392.875 421.86563 393.35938 421.30313Q393.84375 420.74063 393.84375 419.58438Q393.84375 418.30313 393.34375 417.70938Q392.85938 417.11563 392.14062 417.11563Q391.4375 417.11563 390.96875 417.69376Q390.5 418.25626 390.5 419.49063ZM406.0625 419.58438L407.1875 419.88126Q406.82812 421.27188 405.90625 422.00626Q404.98438 422.74063 403.64062 422.74063Q402.25 422.74063 401.375 422.17813Q400.5 421.61563 400.04688 420.55313Q399.59375 419.475 399.59375 418.24063Q399.59375 416.89688 400.10938 415.89688Q400.625 414.89688 401.5625 414.38126Q402.51562 413.86563 403.65625 413.86563Q404.9375 413.86563 405.8125 414.52188Q406.70312 415.17813 407.04688 416.36563L405.92188 416.63126Q405.625 415.69376 405.04688 415.27188Q404.48438 414.83438 403.625 414.83438Q402.64062 414.83438 401.96875 415.31876Q401.3125 415.7875 401.03125 416.58438Q400.76562 417.38126 400.76562 418.24063Q400.76562 419.33438 401.07812 420.14688Q401.40625 420.95938 402.07812 421.36563Q402.75 421.77188 403.54688 421.77188Q404.5 421.77188 405.15625 421.225Q405.82812 420.67813 406.0625 419.58438ZM412.85938 421.83438Q412.26562 422.33438 411.71875 422.5375Q411.1875 422.74063 410.5625 422.74063Q409.53125 422.74063 408.98438 422.24063Q408.4375 421.74063 408.4375 420.95938Q408.4375 420.50626 408.64062 420.13126Q408.84375 419.74063 409.1875 419.52188Q409.53125 419.2875 409.95312 419.17813Q410.25 419.08438 410.89062 419.00626Q412.15625 418.86563 412.76562 418.64688Q412.76562 418.42813 412.76562 418.38126Q412.76562 417.725 412.46875 417.45938Q412.0625 417.11563 411.26562 417.11563Q410.53125 417.11563 410.17188 417.38126Q409.8125 417.63126 409.64062 418.2875L408.60938 418.14688Q408.75 417.49063 409.07812 417.08438Q409.40625 416.67813 410.01562 416.45938Q410.625 416.24063 411.42188 416.24063Q412.21875 416.24063 412.71875 416.42813Q413.21875 416.61563 413.45312 416.89688Q413.6875 417.17813 413.78125 417.61563Q413.82812 417.88126 413.82812 418.58438L413.82812 419.99063Q413.82812 421.45938 413.89062 421.85Q413.96875 422.24063 414.17188 422.6L413.0625 422.6Q412.90625 422.27188 412.85938 421.83438ZM412.76562 419.475Q412.1875 419.70938 411.04688 419.88126Q410.39062 419.975 410.125 420.1Q409.85938 420.20938 409.70312 420.42813Q409.5625 420.64688 409.5625 420.92813Q409.5625 421.35 409.875 421.63126Q410.20312 421.9125 410.8125 421.9125Q411.42188 421.9125 411.89062 421.64688Q412.375 421.38126 412.59375 420.9125Q412.76562 420.55313 412.76562 419.86563L412.76562 419.475ZM415.76562 422.6L415.76562 414.00626L416.82812 414.00626L416.82812 422.6L415.76562 422.6ZM418.76562 422.6L418.76562 414.00626L419.82812 414.00626L419.82812 422.6L418.76562 422.6ZM421.375 420.74063L422.40625 420.58438Q422.5 421.20938 422.89062 421.5375Q423.29688 421.86563 424.03125 421.86563Q424.75 421.86563 425.09375 421.58438Q425.45312 421.2875 425.45312 420.88126Q425.45312 420.52188 425.14062 420.31876Q424.92188 420.17813 424.0625 419.95938Q422.90625 419.6625 422.45312 419.45938Q422.01562 419.24063 421.78125 418.86563Q421.54688 418.49063 421.54688 418.02188Q421.54688 417.61563 421.73438 417.25626Q421.92188 416.89688 422.25 416.6625Q422.5 416.49063 422.92188 416.36563Q423.34375 416.24063 423.84375 416.24063Q424.5625 416.24063 425.10938 416.45938Q425.67188 416.6625 425.9375 417.02188Q426.20312 417.38126 426.29688 417.975L425.26562 418.11563Q425.20312 417.64688 424.85938 417.38126Q424.53125 417.1 423.90625 417.1Q423.1875 417.1 422.875 417.35Q422.5625 417.58438 422.5625 417.9125Q422.5625 418.11563 422.6875 418.27188Q422.82812 418.44376 423.09375 418.55313Q423.25 418.61563 424.03125 418.81876Q425.15625 419.13126 425.59375 419.31876Q426.03125 419.50626 426.28125 419.86563Q426.53125 420.225 426.53125 420.77188Q426.53125 421.30313 426.21875 421.77188Q425.92188 422.225 425.34375 422.49063Q424.76562 422.74063 424.03125 422.74063Q422.8125 422.74063 422.17188 422.24063Q421.54688 421.725 421.375 420.74063Z" fill-rule="nonzero"/><path fill="#000000" d="M33.400005 276.6698L27.181255 276.6698L27.181255 275.7323L28.056255 275.7323Q27.587505 275.43542 27.32188 274.95105Q27.04063 274.46667 27.04063 273.84167Q27.04063 273.15417 27.32188 272.71667Q27.60313 272.26355 28.118755 272.09167Q27.04063 271.34167 27.04063 270.1698Q27.04063 269.2323 27.556255 268.74792Q28.056255 268.24792 29.13438 268.24792L33.400005 268.24792L33.400005 269.2948L29.47813 269.2948Q28.85313 269.2948 28.57188 269.40417Q28.29063 269.49792 28.118755 269.76355Q27.94688 270.02917 27.94688 270.40417Q27.94688 271.06042 28.38438 271.49792Q28.82188 271.9198 29.79063 271.9198L33.400005 271.9198L33.400005 272.9823L29.35313 272.9823Q28.650005 272.9823 28.306255 273.24792Q27.94688 273.49792 27.94688 274.07605Q27.94688 274.52917 28.181255 274.90417Q28.41563 275.27917 28.868755 275.45105Q29.32188 275.62292 30.16563 275.62292L33.400005 275.62292L33.400005 276.6698ZM31.54063 266.09167L31.38438 265.06042Q32.00938 264.96667 32.337505 264.57605Q32.66563 264.1698 32.66563 263.43542Q32.66563 262.71667 32.38438 262.37292Q32.087505 262.01355 31.681255 262.01355Q31.32188 262.01355 31.118755 262.32605Q30.97813 262.5448 30.75938 263.40417Q30.462505 264.56042 30.25938 265.01355Q30.04063 265.45105 29.66563 265.68542Q29.29063 265.9198 28.82188 265.9198Q28.41563 265.9198 28.056255 265.7323Q27.69688 265.5448 27.462505 265.21667Q27.29063 264.96667 27.16563 264.5448Q27.04063 264.12292 27.04063 263.62292Q27.04063 262.90417 27.25938 262.3573Q27.462505 261.7948 27.82188 261.52917Q28.181255 261.26355 28.775005 261.1698L28.91563 262.20105Q28.44688 262.26355 28.181255 262.6073Q27.900005 262.93542 27.900005 263.56042Q27.900005 264.27917 28.150005 264.59167Q28.38438 264.90417 28.712505 264.90417Q28.91563 264.90417 29.07188 264.77917Q29.243755 264.63855 29.35313 264.37292Q29.41563 264.21667 29.618755 263.43542Q29.931255 262.31042 30.118755 261.87292Q30.306255 261.43542 30.66563 261.18542Q31.025005 260.93542 31.57188 260.93542Q32.10313 260.93542 32.57188 261.24792Q33.025005 261.5448 33.29063 262.12292Q33.54063 262.70105 33.54063 263.43542Q33.54063 264.65417 33.04063 265.2948Q32.525005 265.9198 31.54063 266.09167ZM33.54063 259.46667L24.66563 256.9823L24.66563 256.13855L33.54063 258.62292L33.54063 259.46667ZM31.54063 256.09167L31.38438 255.06041Q32.00938 254.96666 32.337505 254.57603Q32.66563 254.16978 32.66563 253.43541Q32.66563 252.71666 32.38438 252.37291Q32.087505 252.01353 31.681255 252.01353Q31.32188 252.01353 31.118755 252.32603Q30.97813 252.54478 30.75938 253.40416Q30.462505 254.56041 30.25938 255.01353Q30.04063 255.45103 29.66563 255.68541Q29.29063 255.91978 28.82188 255.91978Q28.41563 255.91978 28.056255 255.73228Q27.69688 255.54478 27.462505 255.21666Q27.29063 254.96666 27.16563 254.54478Q27.04063 254.12291 27.04063 253.62291Q27.04063 252.90416 27.25938 252.35728Q27.462505 251.79478 27.82188 251.52916Q28.181255 251.26353 28.775005 251.16978L28.91563 252.20103Q28.44688 252.26353 28.181255 252.60728Q27.900005 252.93541 27.900005 253.56041Q27.900005 254.27916 28.150005 254.59166Q28.38438 254.90416 28.712505 254.90416Q28.91563 254.90416 29.07188 254.77916Q29.243755 254.63853 29.35313 254.37291Q29.41563 254.21666 29.618755 253.43541Q29.931255 252.31041 30.118755 251.87291Q30.306255 251.43541 30.66563 251.18541Q31.025005 250.93541 31.57188 250.93541Q32.10313 250.93541 32.57188 251.24791Q33.025005 251.54478 33.29063 252.12291Q33.54063 252.70103 33.54063 253.43541Q33.54063 254.65416 33.04063 255.29478Q32.525005 255.91978 31.54063 256.09167ZM31.118755 244.60728L31.25938 243.57603Q32.32188 243.74791 32.931255 244.45103Q33.54063 245.15416 33.54063 246.16978Q33.54063 247.45103 32.712505 248.23228Q31.868755 248.99791 30.306255 248.99791Q29.306255 248.99791 28.556255 248.66978Q27.79063 248.32603 27.41563 247.65416Q27.04063 246.96666 27.04063 246.15416Q27.04063 245.15416 27.556255 244.51353Q28.056255 243.85728 29.00938 243.66978L29.16563 244.70103Q28.54063 244.84166 28.22813 245.21666Q27.900005 245.59166 27.900005 246.12291Q27.900005 246.91978 28.47813 247.41978Q29.04063 247.91978 30.275005 247.91978Q31.54063 247.91978 32.10313 247.43541Q32.66563 246.95103 32.66563 246.18541Q32.66563 245.56041 32.29063 245.15416Q31.91563 244.73228 31.118755 244.60728ZM33.400005 242.68541L27.181255 242.68541L27.181255 241.73228L28.118755 241.73228Q27.462505 241.37291 27.25938 241.07603Q27.04063 240.76353 27.04063 240.38853Q27.04063 239.85728 27.368755 239.31041L28.35313 239.66978Q28.118755 240.06041 28.118755 240.43541Q28.118755 240.79478 28.337505 241.07603Q28.54063 241.34166 28.91563 241.45103Q29.47813 241.63853 30.13438 241.63853L33.400005 241.63853L33.400005 242.68541ZM26.025005 238.66978L24.806255 238.66978L24.806255 237.60728L26.025005 237.60728L26.025005 238.66978ZM33.400005 238.66978L27.181255 238.66978L27.181255 237.60728L33.400005 237.60728L33.400005 238.66978ZM35.79063 235.66978L27.181255 235.66978L27.181255 234.71666L27.97813 234.71666Q27.50938 234.37291 27.275005 233.95103Q27.04063 233.51353 27.04063 232.90416Q27.04063 232.10728 27.44688 231.49791Q27.85313 230.88853 28.60313 230.59166Q29.35313 230.27916 30.243755 230.27916Q31.19688 230.27916 31.962505 230.62291Q32.72813 230.95103 33.13438 231.60728Q33.54063 232.26353 33.54063 232.98228Q33.54063 233.51353 33.32188 233.93541Q33.087505 234.35728 32.75938 234.62291L35.79063 234.62291L35.79063 235.66978ZM30.32188 234.71666Q31.525005 234.71666 32.10313 234.23228Q32.66563 233.74791 32.66563 233.06041Q32.66563 232.35728 32.07188 231.85728Q31.47813 231.35728 30.22813 231.35728Q29.04063 231.35728 28.462505 231.84166Q27.868755 232.32603 27.868755 233.01353Q27.868755 233.68541 28.493755 234.20103Q29.118755 234.71666 30.32188 234.71666ZM32.462505 226.37291L33.38438 226.21666Q33.47813 226.66978 33.47813 227.01353Q33.47813 227.59166 33.306255 227.90416Q33.118755 228.21666 32.82188 228.35728Q32.525005 228.48228 31.57188 228.48228L27.993755 228.48228L27.993755 229.24791L27.181255 229.24791L27.181255 228.48228L25.63438 228.48228L25.00938 227.43541L27.181255 227.43541L27.181255 226.37291L27.993755 226.37291L27.993755 227.43541L31.63438 227.43541Q32.087505 227.43541 32.212505 227.38853Q32.337505 227.32603 32.41563 227.20103Q32.493755 227.07603 32.493755 226.84166Q32.493755 226.65416 32.462505 226.37291ZM31.400005 218.41978L31.525005 217.32603Q32.47813 217.57603 33.00938 218.27916Q33.54063 218.98228 33.54063 220.06041Q33.54063 221.41978 32.69688 222.23228Q31.85313 223.02916 30.337505 223.02916Q28.775005 223.02916 27.91563 222.21666Q27.04063 221.40416 27.04063 220.12291Q27.04063 218.87291 27.88438 218.09166Q28.72813 217.29478 30.275005 217.29478Q30.368755 217.29478 30.556255 217.29478L30.556255 221.93541Q31.587505 221.87291 32.13438 221.35728Q32.66563 220.84166 32.66563 220.06041Q32.66563 219.48228 32.368755 219.07603Q32.056255 218.65416 31.400005 218.41978ZM29.69688 221.87291L29.69688 218.40416Q28.900005 218.46666 28.50938 218.79478Q27.900005 219.31041 27.900005 220.10728Q27.900005 220.84166 28.38438 221.34166Q28.868755 221.82603 29.69688 221.87291ZM33.400005 213.95103L27.181255 216.31041L27.181255 215.20103L30.900005 213.85728Q31.50938 213.65416 32.150005 213.46666Q31.66563 213.32603 30.97813 213.07603L27.181255 211.68541L27.181255 210.60728L33.400005 212.96666L33.400005 213.95103ZM32.63438 206.60728Q33.13438 207.20103 33.337505 207.74791Q33.54063 208.27916 33.54063 208.90416Q33.54063 209.93541 33.04063 210.48228Q32.54063 211.02916 31.75938 211.02916Q31.306255 211.02916 30.931255 210.82603Q30.54063 210.62291 30.32188 210.27916Q30.087505 209.93541 29.97813 209.51353Q29.88438 209.21666 29.806255 208.57603Q29.66563 207.31041 29.44688 206.70103Q29.22813 206.70103 29.181255 206.70103Q28.525005 206.70103 28.25938 206.99791Q27.91563 207.40416 27.91563 208.20103Q27.91563 208.93541 28.181255 209.29478Q28.431255 209.65416 29.087505 209.82603L28.94688 210.85728Q28.29063 210.71666 27.88438 210.38853Q27.47813 210.06041 27.25938 209.45103Q27.04063 208.84166 27.04063 208.04478Q27.04063 207.24791 27.22813 206.74791Q27.41563 206.24791 27.69688 206.01353Q27.97813 205.77916 28.41563 205.68541Q28.681255 205.63853 29.38438 205.63853L30.79063 205.63853Q32.25938 205.63853 32.650005 205.57603Q33.04063 205.49791 33.400005 205.29478L33.400005 206.40416Q33.07188 206.56041 32.63438 206.60728ZM30.275005 206.70103Q30.50938 207.27916 30.681255 208.41978Q30.775005 209.07603 30.900005 209.34166Q31.00938 209.60728 31.22813 209.76353Q31.44688 209.90416 31.72813 209.90416Q32.150005 209.90416 32.431255 209.59166Q32.712505 209.26353 32.712505 208.65416Q32.712505 208.04478 32.44688 207.57603Q32.181255 207.09166 31.712505 206.87291Q31.35313 206.70103 30.66563 206.70103L30.275005 206.70103ZM33.400005 203.70103L24.806255 203.70103L24.806255 202.63853L33.400005 202.63853L33.400005 203.70103ZM33.400005 196.59166L32.47813 196.59166Q33.54063 197.32603 33.54063 198.57603Q33.54063 199.12291 33.337505 199.60728Q33.118755 200.07603 32.806255 200.31041Q32.47813 200.54478 32.00938 200.63853Q31.712505 200.70103 31.025005 200.70103L27.181255 200.70103L27.181255 199.63853L30.63438 199.63853Q31.44688 199.63853 31.743755 199.57603Q32.150005 199.48228 32.400005 199.16978Q32.63438 198.84166 32.63438 198.35728Q32.63438 197.88853 32.400005 197.48228Q32.150005 197.06041 31.72813 196.88853Q31.306255 196.70103 30.50938 196.70103L27.181255 196.70103L27.181255 195.65416L33.400005 195.65416L33.400005 196.59166ZM32.63438 189.60728Q33.13438 190.20103 33.337505 190.74791Q33.54063 191.27916 33.54063 191.90416Q33.54063 192.93541 33.04063 193.48228Q32.54063 194.02916 31.75938 194.02916Q31.306255 194.02916 30.931255 193.82603Q30.54063 193.62291 30.32188 193.27916Q30.087505 192.93541 29.97813 192.51353Q29.88438 192.21666 29.806255 191.57603Q29.66563 190.31041 29.44688 189.70103Q29.22813 189.70103 29.181255 189.70103Q28.525005 189.70103 28.25938 189.99791Q27.91563 190.40416 27.91563 191.20103Q27.91563 191.93541 28.181255 192.29478Q28.431255 192.65416 29.087505 192.82603L28.94688 193.85728Q28.29063 193.71666 27.88438 193.38853Q27.47813 193.06041 27.25938 192.45103Q27.04063 191.84166 27.04063 191.04478Q27.04063 190.24791 27.22813 189.74791Q27.41563 189.24791 27.69688 189.01353Q27.97813 188.77916 28.41563 188.68541Q28.681255 188.63853 29.38438 188.63853L30.79063 188.63853Q32.25938 188.63853 32.650005 188.57603Q33.04063 188.49791 33.400005 188.29478L33.400005 189.40416Q33.07188 189.56041 32.63438 189.60728ZM30.275005 189.70103Q30.50938 190.27916 30.681255 191.41978Q30.775005 192.07603 30.900005 192.34166Q31.00938 192.60728 31.22813 192.76353Q31.44688 192.90416 31.72813 192.90416Q32.150005 192.90416 32.431255 192.59166Q32.712505 192.26353 32.712505 191.65416Q32.712505 191.04478 32.44688 190.57603Q32.181255 190.09166 31.712505 189.87291Q31.35313 189.70103 30.66563 189.70103L30.275005 189.70103ZM32.462505 184.37291L33.38438 184.21666Q33.47813 184.66978 33.47813 185.01353Q33.47813 185.59166 33.306255 185.90416Q33.118755 186.21666 32.82188 186.35728Q32.525005 186.48228 31.57188 186.48228L27.993755 186.48228L27.993755 187.24791L27.181255 187.24791L27.181255 186.48228L25.63438 186.48228L25.00938 185.43541L27.181255 185.43541L27.181255 184.37291L27.993755 184.37291L27.993755 185.43541L31.63438 185.43541Q32.087505 185.43541 32.212505 185.38853Q32.337505 185.32603 32.41563 185.20103Q32.493755 185.07603 32.493755 184.84166Q32.493755 184.65416 32.462505 184.37291ZM26.025005 183.66978L24.806255 183.66978L24.806255 182.60728L26.025005 182.60728L26.025005 183.66978ZM33.400005 183.66978L27.181255 183.66978L27.181255 182.60728L33.400005 182.60728L33.400005 183.66978ZM30.29063 181.06041Q28.556255 181.06041 27.72813 180.10728Q27.04063 179.31041 27.04063 178.15416Q27.04063 176.87291 27.88438 176.06041Q28.712505 175.23228 30.19688 175.23228Q31.400005 175.23228 32.087505 175.59166Q32.775005 175.95103 33.16563 176.65416Q33.54063 177.34166 33.54063 178.15416Q33.54063 179.45103 32.712505 180.26353Q31.868755 181.06041 30.29063 181.06041ZM30.29063 179.98228Q31.47813 179.98228 32.07188 179.46666Q32.66563 178.93541 32.66563 178.15416Q32.66563 177.35728 32.07188 176.84166Q31.47813 176.32603 30.25938 176.32603Q29.10313 176.32603 28.50938 176.85728Q27.91563 177.37291 27.91563 178.15416Q27.91563 178.93541 28.50938 179.46666Q29.087505 179.98228 30.29063 179.98228ZM33.400005 173.66978L27.181255 173.66978L27.181255 172.73228L28.056255 172.73228Q27.04063 172.04478 27.04063 170.74791Q27.04063 170.18541 27.243755 169.71666Q27.44688 169.23228 27.775005 168.99791Q28.10313 168.76353 28.54063 168.66978Q28.837505 168.62291 29.57188 168.62291L33.400005 168.62291L33.400005 169.66978L29.618755 169.66978Q28.962505 169.66978 28.650005 169.79478Q28.337505 169.91978 28.150005 170.23228Q27.94688 170.54478 27.94688 170.96666Q27.94688 171.63853 28.38438 172.13853Q28.806255 172.62291 29.993755 172.62291L33.400005 172.62291L33.400005 173.66978Z" fill-rule="nonzero"/><path fill="#000000" d="M68.9 373.36563Q68.9 371.83438 69.2125 370.9125Q69.525 369.975 70.13438 369.475Q70.75938 368.975 71.69688 368.975Q72.38438 368.975 72.9 369.25626Q73.43125 369.5375 73.775 370.06876Q74.11875 370.58438 74.30625 371.33438Q74.49375 372.08438 74.49375 373.36563Q74.49375 374.88126 74.18125 375.80313Q73.88438 376.725 73.25938 377.24063Q72.65 377.74063 71.69688 377.74063Q70.4625 377.74063 69.74375 376.85Q68.9 375.7875 68.9 373.36563ZM69.97813 373.36563Q69.97813 375.475 70.47813 376.17813Q70.97813 376.88126 71.69688 376.88126Q72.43125 376.88126 72.91563 376.17813Q73.41563 375.475 73.41563 373.36563Q73.41563 371.24063 72.91563 370.55313Q72.43125 369.85 71.68125 369.85Q70.9625 369.85 70.525 370.45938Q69.97813 371.24063 69.97813 373.36563Z" fill-rule="nonzero"/><path fill="#000000" d="M67.44688 313.53104L67.44688 314.54666L61.759377 314.54666Q61.759377 314.17166 61.884377 313.8123Q62.103127 313.23416 62.571877 312.67166Q63.05625 312.10916 63.9625 311.3748Q65.36875 310.21854 65.85313 309.54666Q66.35313 308.8748 66.35313 308.28104Q66.35313 307.65604 65.9 307.23416Q65.44688 306.79666 64.72813 306.79666Q63.9625 306.79666 63.509377 307.2498Q63.05625 307.7029 63.040627 308.5154L61.9625 308.40604Q62.071877 307.1873 62.790627 306.5623Q63.525 305.92166 64.75938 305.92166Q65.99375 305.92166 66.7125 306.60916Q67.43125 307.29666 67.43125 308.3123Q67.43125 308.8279 67.2125 309.3279Q67.00938 309.8123 66.50938 310.3748Q66.025 310.92166 64.9 311.8748Q63.946877 312.67166 63.665627 312.96854Q63.4 313.2498 63.228127 313.53104L67.44688 313.53104ZM68.9 312.29666L70.00938 312.2029Q70.13438 313.0154 70.57188 313.42166Q71.025 313.8279 71.66563 313.8279Q72.41563 313.8279 72.94688 313.2498Q73.47813 312.67166 73.47813 311.73416Q73.47813 310.8279 72.9625 310.3123Q72.4625 309.78104 71.63438 309.78104Q71.13438 309.78104 70.7125 310.0154Q70.30625 310.2498 70.07188 310.60916L69.0875 310.48416L69.91563 306.0779L74.19688 306.0779L74.19688 307.0779L70.75938 307.0779L70.30625 309.3904Q71.07188 308.84354 71.91563 308.84354Q73.04063 308.84354 73.80625 309.6248Q74.5875 310.40604 74.5875 311.6404Q74.5875 312.79666 73.91563 313.65604Q73.0875 314.6873 71.66563 314.6873Q70.49375 314.6873 69.74375 314.03104Q69.00938 313.3748 68.9 312.29666Z" fill-rule="nonzero"/><path fill="#000000" d="M61.9 249.24333L63.009377 249.14958Q63.134377 249.96208 63.571877 250.36833Q64.025 250.77458 64.66563 250.77458Q65.41563 250.77458 65.94688 250.19646Q66.47813 249.61833 66.47813 248.68083Q66.47813 247.77458 65.9625 247.25896Q65.4625 246.7277 64.63438 246.7277Q64.13438 246.7277 63.7125 246.96208Q63.30625 247.19646 63.071877 247.55583L62.0875 247.43083L62.915627 243.02458L67.19688 243.02458L67.19688 244.02458L63.759377 244.02458L63.30625 246.33708Q64.07188 245.7902 64.91563 245.7902Q66.04063 245.7902 66.80625 246.57146Q67.5875 247.3527 67.5875 248.58708Q67.5875 249.74333 66.91563 250.6027Q66.0875 251.63396 64.66563 251.63396Q63.49375 251.63396 62.74375 250.9777Q62.009377 250.32146 61.9 249.24333ZM68.9 247.25896Q68.9 245.7277 69.2125 244.80583Q69.525 243.86833 70.13438 243.36833Q70.75938 242.86833 71.69688 242.86833Q72.38438 242.86833 72.9 243.14958Q73.43125 243.43083 73.775 243.96208Q74.11875 244.4777 74.30625 245.2277Q74.49375 245.9777 74.49375 247.25896Q74.49375 248.77458 74.18125 249.69646Q73.88438 250.61833 73.25938 251.13396Q72.65 251.63396 71.69688 251.63396Q70.4625 251.63396 69.74375 250.74333Q68.9 249.68083 68.9 247.25896ZM69.97813 247.25896Q69.97813 249.36833 70.47813 250.07146Q70.97813 250.77458 71.69688 250.77458Q72.43125 250.77458 72.91563 250.07146Q73.41563 249.36833 73.41563 247.25896Q73.41563 245.13396 72.91563 244.44646Q72.43125 243.74333 71.68125 243.74333Q70.9625 243.74333 70.525 244.3527Q69.97813 245.13396 69.97813 247.25896Z" fill-rule="nonzero"/><path fill="#000000" d="M61.9625 180.97125L61.9625 179.95563L67.525 179.95563L67.525 180.78375Q66.7125 181.65875 65.9 183.11188Q65.10313 184.54938 64.66563 186.08063Q64.3375 187.15875 64.25938 188.44L63.165627 188.44Q63.18125 187.42438 63.55625 185.98688Q63.946877 184.54938 64.65 183.22125Q65.36875 181.89313 66.18125 180.97125L61.9625 180.97125ZM68.9 186.19L70.00938 186.09625Q70.13438 186.90875 70.57188 187.315Q71.025 187.72125 71.66563 187.72125Q72.41563 187.72125 72.94688 187.14313Q73.47813 186.565 73.47813 185.6275Q73.47813 184.72125 72.9625 184.20563Q72.4625 183.67438 71.63438 183.67438Q71.13438 183.67438 70.7125 183.90875Q70.30625 184.14313 70.07188 184.5025L69.0875 184.3775L69.91563 179.97125L74.19688 179.97125L74.19688 180.97125L70.75938 180.97125L70.30625 183.28375Q71.07188 182.73688 71.91563 182.73688Q73.04063 182.73688 73.80625 183.51813Q74.5875 184.29938 74.5875 185.53375Q74.5875 186.69 73.91563 187.54938Q73.0875 188.58063 71.66563 188.58063Q70.49375 188.58063 69.74375 187.92438Q69.00938 187.26813 68.9 186.19Z" fill-rule="nonzero"/><path fill="#000000" d="M58.86875 125.386665L57.821877 125.386665L57.821877 118.667915Q57.43125 119.02729 56.80625 119.40229Q56.196877 119.761665 55.7125 119.93354L55.7125 118.917915Q56.5875 118.49604 57.24375 117.917915Q57.915627 117.324165 58.196877 116.761665L58.86875 116.761665L58.86875 125.386665ZM61.9 121.15229Q61.9 119.62104 62.2125 118.699165Q62.525 117.761665 63.134377 117.261665Q63.759377 116.761665 64.69688 116.761665Q65.38438 116.761665 65.9 117.042915Q66.43125 117.324165 66.775 117.855415Q67.11875 118.37104 67.30625 119.12104Q67.49375 119.87104 67.49375 121.15229Q67.49375 122.667915 67.18125 123.58979Q66.88438 124.511665 66.25938 125.02729Q65.65 125.52729 64.69688 125.52729Q63.4625 125.52729 62.74375 124.636665Q61.9 123.574165 61.9 121.15229ZM62.978127 121.15229Q62.978127 123.261665 63.478127 123.96479Q63.978127 124.667915 64.69688 124.667915Q65.43125 124.667915 65.91563 123.96479Q66.41563 123.261665 66.41563 121.15229Q66.41563 119.02729 65.91563 118.33979Q65.43125 117.636665 64.68125 117.636665Q63.9625 117.636665 63.525 118.24604Q62.978127 119.02729 62.978127 121.15229ZM68.9 121.15229Q68.9 119.62104 69.2125 118.699165Q69.525 117.761665 70.13438 117.261665Q70.75938 116.761665 71.69688 116.761665Q72.38438 116.761665 72.9 117.042915Q73.43125 117.324165 73.775 117.855415Q74.11875 118.37104 74.30625 119.12104Q74.49375 119.87104 74.49375 121.15229Q74.49375 122.667915 74.18125 123.58979Q73.88438 124.511665 73.25938 125.02729Q72.65 125.52729 71.69688 125.52729Q70.4625 125.52729 69.74375 124.636665Q68.9 123.574165 68.9 121.15229ZM69.97813 121.15229Q69.97813 123.261665 70.47813 123.96479Q70.97813 124.667915 71.69688 124.667915Q72.43125 124.667915 72.91563 123.96479Q73.41563 123.261665 73.41563 121.15229Q73.41563 119.02729 72.91563 118.33979Q72.43125 117.636665 71.68125 117.636665Q70.9625 117.636665 70.525 118.24604Q69.97813 119.02729 69.97813 121.15229Z" fill-rule="nonzero"/><path fill="#000000" d="M58.86875 62.333332L57.821877 62.333332L57.821877 55.614582Q57.43125 55.973957 56.80625 56.348957Q56.196877 56.708332 55.7125 56.880207L55.7125 55.864582Q56.5875 55.442707 57.24375 54.864582Q57.915627 54.270832 58.196877 53.708332L58.86875 53.708332L58.86875 62.333332ZM67.44688 61.317707L67.44688 62.333332L61.759377 62.333332Q61.759377 61.958332 61.884377 61.598957Q62.103127 61.020832 62.571877 60.458332Q63.05625 59.895832 63.9625 59.161457Q65.36875 58.005207 65.85313 57.333332Q66.35313 56.661457 66.35313 56.067707Q66.35313 55.442707 65.9 55.020832Q65.44688 54.583332 64.72813 54.583332Q63.9625 54.583332 63.509377 55.036457Q63.05625 55.489582 63.040627 56.302082L61.9625 56.192707Q62.071877 54.973957 62.790627 54.348957Q63.525 53.708332 64.75938 53.708332Q65.99375 53.708332 66.7125 54.395832Q67.43125 55.083332 67.43125 56.098957Q67.43125 56.614582 67.2125 57.114582Q67.00938 57.598957 66.50938 58.161457Q66.025 58.708332 64.9 59.661457Q63.946877 60.458332 63.665627 60.755207Q63.4 61.036457 63.228127 61.317707L67.44688 61.317707ZM68.9 60.083332L70.00938 59.989582Q70.13438 60.802082 70.57188 61.208332Q71.025 61.614582 71.66563 61.614582Q72.41563 61.614582 72.94688 61.036457Q73.47813 60.458332 73.47813 59.520832Q73.47813 58.614582 72.9625 58.098957Q72.4625 57.567707 71.63438 57.567707Q71.13438 57.567707 70.7125 57.802082Q70.30625 58.036457 70.07188 58.395832L69.0875 58.270832L69.91563 53.864582L74.19688 53.864582L74.19688 54.864582L70.75938 54.864582L70.30625 57.177082Q71.07188 56.630207 71.91563 56.630207Q73.04063 56.630207 73.80625 57.411457Q74.5875 58.192707 74.5875 59.427082Q74.5875 60.583332 73.91563 61.442707Q73.0875 62.473957 71.66563 62.473957Q70.49375 62.473957 69.74375 61.817707Q69.00938 61.161457 68.9 60.083332Z" fill-rule="nonzero"/><path fill="#000000" d="M130.6354 390.6L129.58853 390.6L129.58853 383.88126Q129.1979 384.24063 128.5729 384.61563Q127.96354 384.975 127.479164 385.14688L127.479164 384.13126Q128.35416 383.70938 129.0104 383.13126Q129.68228 382.5375 129.96353 381.975L130.6354 381.975L130.6354 390.6ZM133.66666 386.36563Q133.66666 384.83438 133.97916 383.9125Q134.29166 382.975 134.90103 382.475Q135.52603 381.975 136.46353 381.975Q137.15103 381.975 137.66666 382.25626Q138.1979 382.5375 138.54166 383.06876Q138.8854 383.58438 139.0729 384.33438Q139.2604 385.08438 139.2604 386.36563Q139.2604 387.88126 138.9479 388.80313Q138.65103 389.725 138.02603 390.24063Q137.41666 390.74063 136.46353 390.74063Q135.22916 390.74063 134.5104 389.85Q133.66666 388.7875 133.66666 386.36563ZM134.74478 386.36563Q134.74478 388.475 135.24478 389.17813Q135.74478 389.88126 136.46353 389.88126Q137.1979 389.88126 137.68228 389.17813Q138.18228 388.475 138.18228 386.36563Q138.18228 384.24063 137.68228 383.55313Q137.1979 382.85 136.4479 382.85Q135.72916 382.85 135.29166 383.45938Q134.74478 384.24063 134.74478 386.36563Z" fill-rule="nonzero"/><path fill="#000000" d="M235.74687 389.58438L235.74687 390.6L230.05937 390.6Q230.05937 390.225 230.18437 389.86563Q230.40312 389.2875 230.87187 388.725Q231.35625 388.1625 232.2625 387.42813Q233.66875 386.27188 234.15312 385.6Q234.65312 384.92813 234.65312 384.33438Q234.65312 383.70938 234.2 383.2875Q233.74687 382.85 233.02812 382.85Q232.2625 382.85 231.80937 383.30313Q231.35625 383.75626 231.34062 384.56876L230.2625 384.45938Q230.37187 383.24063 231.09062 382.61563Q231.825 381.975 233.05937 381.975Q234.29375 381.975 235.0125 382.6625Q235.73125 383.35 235.73125 384.36563Q235.73125 384.88126 235.5125 385.38126Q235.30937 385.86563 234.80937 386.42813Q234.325 386.975 233.2 387.92813Q232.24687 388.725 231.96562 389.02188Q231.7 389.30313 231.52812 389.58438L235.74687 389.58438ZM237.2 386.36563Q237.2 384.83438 237.5125 383.9125Q237.825 382.975 238.43437 382.475Q239.05937 381.975 239.99687 381.975Q240.68437 381.975 241.2 382.25626Q241.73125 382.5375 242.075 383.06876Q242.41875 383.58438 242.60625 384.33438Q242.79375 385.08438 242.79375 386.36563Q242.79375 387.88126 242.48125 388.80313Q242.18437 389.725 241.55937 390.24063Q240.95 390.74063 239.99687 390.74063Q238.7625 390.74063 238.04375 389.85Q237.2 388.7875 237.2 386.36563ZM238.27812 386.36563Q238.27812 388.475 238.77812 389.17813Q239.27812 389.88126 239.99687 389.88126Q240.73125 389.88126 241.21562 389.17813Q241.71562 388.475 241.71562 386.36563Q241.71562 384.24063 241.21562 383.55313Q240.73125 382.85 239.98125 382.85Q239.2625 382.85 238.825 383.45938Q238.27812 384.24063 238.27812 386.36563Z" fill-rule="nonzero"/><path fill="#000000" d="M333.73334 388.33438L334.79584 388.19376Q334.9677 389.08438 335.4052 389.49063Q335.8427 389.88126 336.4677 389.88126Q337.2177 389.88126 337.73334 389.36563Q338.24896 388.85 338.24896 388.08438Q338.24896 387.36563 337.7646 386.89688Q337.29584 386.4125 336.56146 386.4125Q336.2646 386.4125 335.81146 386.5375L335.93646 385.6Q336.04584 385.61563 336.10834 385.61563Q336.7802 385.61563 337.31146 385.27188Q337.85834 384.9125 337.85834 384.17813Q337.85834 383.6 337.4677 383.225Q337.0771 382.83438 336.4521 382.83438Q335.8427 382.83438 335.42084 383.225Q335.0146 383.61563 334.9052 384.38126L333.8427 384.19376Q334.0302 383.14688 334.7177 382.56876Q335.4052 381.975 336.42084 381.975Q337.12396 381.975 337.7177 382.2875Q338.31146 382.58438 338.62396 383.1Q338.93646 383.61563 338.93646 384.20938Q338.93646 384.75626 338.6396 385.225Q338.3427 385.67813 337.7646 385.94376Q338.5146 386.11563 338.93646 386.67813Q339.35834 387.225 339.35834 388.06876Q339.35834 389.19376 338.5302 389.975Q337.7177 390.75626 336.4677 390.75626Q335.3427 390.75626 334.5927 390.08438Q333.8427 389.39688 333.73334 388.33438ZM340.73334 386.36563Q340.73334 384.83438 341.04584 383.9125Q341.35834 382.975 341.9677 382.475Q342.5927 381.975 343.5302 381.975Q344.2177 381.975 344.73334 382.25626Q345.2646 382.5375 345.60834 383.06876Q345.9521 383.58438 346.1396 384.33438Q346.3271 385.08438 346.3271 386.36563Q346.3271 387.88126 346.0146 388.80313Q345.7177 389.725 345.0927 390.24063Q344.48334 390.74063 343.5302 390.74063Q342.29584 390.74063 341.5771 389.85Q340.73334 388.7875 340.73334 386.36563ZM341.81146 386.36563Q341.81146 388.475 342.31146 389.17813Q342.81146 389.88126 343.5302 389.88126Q344.2646 389.88126 344.74896 389.17813Q345.24896 388.475 345.24896 386.36563Q345.24896 384.24063 344.74896 383.55313Q344.2646 382.85 343.5146 382.85Q342.79584 382.85 342.35834 383.45938Q341.81146 384.24063 341.81146 386.36563Z" fill-rule="nonzero"/><path fill="#000000" d="M437.26666 388.35L438.37604 388.25626Q438.50104 389.06876 438.93854 389.475Q439.39166 389.88126 440.0323 389.88126Q440.7823 389.88126 441.31354 389.30313Q441.8448 388.725 441.8448 387.7875Q441.8448 386.88126 441.32916 386.36563Q440.82916 385.83438 440.00104 385.83438Q439.50104 385.83438 439.07916 386.06876Q438.6729 386.30313 438.43854 386.6625L437.45416 386.5375L438.2823 382.13126L442.56354 382.13126L442.56354 383.13126L439.12604 383.13126L438.6729 385.44376Q439.43854 384.89688 440.2823 384.89688Q441.4073 384.89688 442.1729 385.67813Q442.95416 386.45938 442.95416 387.69376Q442.95416 388.85 442.2823 389.70938Q441.45416 390.74063 440.0323 390.74063Q438.8604 390.74063 438.1104 390.08438Q437.37604 389.42813 437.26666 388.35ZM444.26666 386.36563Q444.26666 384.83438 444.57916 383.9125Q444.89166 382.975 445.50104 382.475Q446.12604 381.975 447.06354 381.975Q447.75104 381.975 448.26666 382.25626Q448.7979 382.5375 449.14166 383.06876Q449.4854 383.58438 449.6729 384.33438Q449.8604 385.08438 449.8604 386.36563Q449.8604 387.88126 449.5479 388.80313Q449.25104 389.725 448.62604 390.24063Q448.01666 390.74063 447.06354 390.74063Q445.82916 390.74063 445.1104 389.85Q444.26666 388.7875 444.26666 386.36563ZM445.3448 386.36563Q445.3448 388.475 445.8448 389.17813Q446.3448 389.88126 447.06354 389.88126Q447.7979 389.88126 448.2823 389.17813Q448.7823 388.475 448.7823 386.36563Q448.7823 384.24063 448.2823 383.55313Q447.7979 382.85 447.0479 382.85Q446.32916 382.85 445.89166 383.45938Q445.3448 384.24063 445.3448 386.36563Z" fill-rule="nonzero"/><path fill="#000000" d="M541.26874 390.6L540.22186 390.6L540.22186 383.88126Q539.83124 384.24063 539.20624 384.61563Q538.59686 384.975 538.1125 385.14688L538.1125 384.13126Q538.9875 383.70938 539.64374 383.13126Q540.3156 382.5375 540.59686 381.975L541.26874 381.975L541.26874 390.6ZM544.3 386.36563Q544.3 384.83438 544.6125 383.9125Q544.925 382.975 545.53436 382.475Q546.15936 381.975 547.09686 381.975Q547.78436 381.975 548.3 382.25626Q548.83124 382.5375 549.175 383.06876Q549.51874 383.58438 549.70624 384.33438Q549.89374 385.08438 549.89374 386.36563Q549.89374 387.88126 549.58124 388.80313Q549.28436 389.725 548.65936 390.24063Q548.05 390.74063 547.09686 390.74063Q545.8625 390.74063 545.14374 389.85Q544.3 388.7875 544.3 386.36563ZM545.3781 386.36563Q545.3781 388.475 545.8781 389.17813Q546.3781 389.88126 547.09686 389.88126Q547.83124 389.88126 548.3156 389.17813Q548.8156 388.475 548.8156 386.36563Q548.8156 384.24063 548.3156 383.55313Q547.83124 382.85 547.08124 382.85Q546.3625 382.85 545.925 383.45938Q545.3781 384.24063 545.3781 386.36563ZM551.3 386.36563Q551.3 384.83438 551.6125 383.9125Q551.925 382.975 552.53436 382.475Q553.15936 381.975 554.09686 381.975Q554.78436 381.975 555.3 382.25626Q555.83124 382.5375 556.175 383.06876Q556.51874 383.58438 556.70624 384.33438Q556.89374 385.08438 556.89374 386.36563Q556.89374 387.88126 556.58124 388.80313Q556.28436 389.725 555.65936 390.24063Q555.05 390.74063 554.09686 390.74063Q552.8625 390.74063 552.14374 389.85Q551.3 388.7875 551.3 386.36563ZM552.3781 386.36563Q552.3781 388.475 552.8781 389.17813Q553.3781 389.88126 554.09686 389.88126Q554.83124 389.88126 555.3156 389.17813Q555.8156 388.475 555.8156 386.36563Q555.8156 384.24063 555.3156 383.55313Q554.83124 382.85 554.08124 382.85Q553.3625 382.85 552.925 383.45938Q552.3781 384.24063 552.3781 386.36563Z" fill-rule="nonzero"/><path fill="#000000" d="M646.3802 389.58438L646.3802 390.6L640.6927 390.6Q640.6927 390.225 640.8177 389.86563Q641.03644 389.2875 641.5052 388.725Q641.98956 388.1625 642.8958 387.42813Q644.30206 386.27188 644.78644 385.6Q645.28644 384.92813 645.28644 384.33438Q645.28644 383.70938 644.8333 383.2875Q644.3802 382.85 643.66144 382.85Q642.8958 382.85 642.4427 383.30313Q641.98956 383.75626 641.97394 384.56876L640.8958 384.45938Q641.0052 383.24063 641.72394 382.61563Q642.4583 381.975 643.6927 381.975Q644.92706 381.975 645.6458 382.6625Q646.36456 383.35 646.36456 384.36563Q646.36456 384.88126 646.1458 385.38126Q645.9427 385.86563 645.4427 386.42813Q644.9583 386.975 643.8333 387.92813Q642.8802 388.725 642.59894 389.02188Q642.3333 389.30313 642.16144 389.58438L646.3802 389.58438ZM647.8333 386.36563Q647.8333 384.83438 648.1458 383.9125Q648.4583 382.975 649.0677 382.475Q649.6927 381.975 650.6302 381.975Q651.3177 381.975 651.8333 382.25626Q652.36456 382.5375 652.7083 383.06876Q653.05206 383.58438 653.23956 384.33438Q653.42706 385.08438 653.42706 386.36563Q653.42706 387.88126 653.11456 388.80313Q652.8177 389.725 652.1927 390.24063Q651.5833 390.74063 650.6302 390.74063Q649.3958 390.74063 648.67706 389.85Q647.8333 388.7875 647.8333 386.36563ZM648.91144 386.36563Q648.91144 388.475 649.41144 389.17813Q649.91144 389.88126 650.6302 389.88126Q651.36456 389.88126 651.84894 389.17813Q652.34894 388.475 652.34894 386.36563Q652.34894 384.24063 651.84894 383.55313Q651.36456 382.85 650.61456 382.85Q649.8958 382.85 649.4583 383.45938Q648.91144 384.24063 648.91144 386.36563ZM654.8333 386.36563Q654.8333 384.83438 655.1458 383.9125Q655.4583 382.975 656.0677 382.475Q656.6927 381.975 657.6302 381.975Q658.3177 381.975 658.8333 382.25626Q659.36456 382.5375 659.7083 383.06876Q660.05206 383.58438 660.23956 384.33438Q660.42706 385.08438 660.42706 386.36563Q660.42706 387.88126 660.11456 388.80313Q659.8177 389.725 659.1927 390.24063Q658.5833 390.74063 657.6302 390.74063Q656.3958 390.74063 655.67706 389.85Q654.8333 388.7875 654.8333 386.36563ZM655.91144 386.36563Q655.91144 388.475 656.41144 389.17813Q656.91144 389.88126 657.6302 389.88126Q658.36456 389.88126 658.84894 389.17813Q659.34894 388.475 659.34894 386.36563Q659.34894 384.24063 658.84894 383.55313Q658.36456 382.85 657.61456 382.85Q656.8958 382.85 656.4583 383.45938Q655.91144 384.24063 655.91144 386.36563Z" fill-rule="nonzero"/><path stroke="#ea4335" stroke-width="4.0" stroke-linecap="butt" d="M277.0 29.4L289.0 29.4" fill-rule="nonzero"/><path fill="#1a1a1a" d="M297.875 33.4L297.875 24.806252L301.10938 24.806252Q302.09375 24.806252 302.6875 25.071877Q303.28125 25.337502 303.60938 25.884377Q303.95312 26.415627 303.95312 27.009377Q303.95312 27.556252 303.65625 28.040627Q303.35938 28.525002 302.75 28.821877Q303.53125 29.056252 303.9375 29.618752Q304.35938 30.165627 304.35938 30.915627Q304.35938 31.509377 304.10938 32.040627Q303.85938 32.55625 303.48438 32.8375Q303.10938 33.11875 302.53125 33.259377Q301.96875 33.4 301.15625 33.4L297.875 33.4ZM299.01562 28.415627L300.875 28.415627Q301.625 28.415627 301.95312 28.321877Q302.39062 28.196877 302.60938 27.900002Q302.82812 27.587502 302.82812 27.134377Q302.82812 26.712502 302.625 26.384377Q302.42188 26.056252 302.03125 25.946877Q301.65625 25.821877 300.73438 25.821877L299.01562 25.821877L299.01562 28.415627ZM299.01562 32.384377L301.15625 32.384377Q301.70312 32.384377 301.92188 32.3375Q302.32812 32.275 302.57812 32.11875Q302.84375 31.946877 303.01562 31.634377Q303.1875 31.321877 303.1875 30.915627Q303.1875 30.431252 302.9375 30.071877Q302.70312 29.712502 302.26562 29.571877Q301.82812 29.431252 301.0 29.431252L299.01562 29.431252L299.01562 32.384377ZM309.85938 32.634377Q309.26562 33.134377 308.71875 33.3375Q308.1875 33.540627 307.5625 33.540627Q306.53125 33.540627 305.98438 33.040627Q305.4375 32.540627 305.4375 31.759377Q305.4375 31.306252 305.64062 30.931252Q305.84375 30.540627 306.1875 30.321877Q306.53125 30.087502 306.95312 29.978127Q307.25 29.884377 307.89062 29.806252Q309.15625 29.665627 309.76562 29.446877Q309.76562 29.228127 309.76562 29.181252Q309.76562 28.525002 309.46875 28.259377Q309.0625 27.915627 308.26562 27.915627Q307.53125 27.915627 307.17188 28.181252Q306.8125 28.431252 306.64062 29.087502L305.60938 28.946877Q305.75 28.290627 306.07812 27.884377Q306.40625 27.478127 307.01562 27.259377Q307.625 27.040627 308.42188 27.040627Q309.21875 27.040627 309.71875 27.228127Q310.21875 27.415627 310.45312 27.696877Q310.6875 27.978127 310.78125 28.415627Q310.82812 28.681252 310.82812 29.384377L310.82812 30.790627Q310.82812 32.259377 310.89062 32.65Q310.96875 33.040627 311.17188 33.4L310.0625 33.4Q309.90625 33.071877 309.85938 32.634377ZM309.76562 30.275002Q309.1875 30.509377 308.04688 30.681252Q307.39062 30.775002 307.125 30.900002Q306.85938 31.009377 306.70312 31.228127Q306.5625 31.446877 306.5625 31.728127Q306.5625 32.15 306.875 32.43125Q307.20312 32.7125 307.8125 32.7125Q308.42188 32.7125 308.89062 32.446877Q309.375 32.18125 309.59375 31.712502Q309.76562 31.353127 309.76562 30.665627L309.76562 30.275002ZM315.09375 32.4625L315.25 33.384377Q314.79688 33.478127 314.45312 33.478127Q313.875 33.478127 313.5625 33.30625Q313.25 33.11875 313.10938 32.821877Q312.98438 32.525 312.98438 31.571877L312.98438 27.993752L312.21875 27.993752L312.21875 27.181252L312.98438 27.181252L312.98438 25.634377L314.03125 25.009377L314.03125 27.181252L315.09375 27.181252L315.09375 27.993752L314.03125 27.993752L314.03125 31.634377Q314.03125 32.0875 314.07812 32.2125Q314.14062 32.3375 314.26562 32.415627Q314.39062 32.49375 314.625 32.49375Q314.8125 32.49375 315.09375 32.4625ZM319.85938 31.118752L320.89062 31.259377Q320.71875 32.321877 320.01562 32.93125Q319.3125 33.540627 318.29688 33.540627Q317.01562 33.540627 316.23438 32.7125Q315.46875 31.868752 315.46875 30.306252Q315.46875 29.306252 315.79688 28.556252Q316.14062 27.790627 316.8125 27.415627Q317.5 27.040627 318.3125 27.040627Q319.3125 27.040627 319.95312 27.556252Q320.60938 28.056252 320.79688 29.009377L319.76562 29.165627Q319.625 28.540627 319.25 28.228127Q318.875 27.900002 318.34375 27.900002Q317.54688 27.900002 317.04688 28.478127Q316.54688 29.040627 316.54688 30.275002Q316.54688 31.540627 317.03125 32.103127Q317.51562 32.665627 318.28125 32.665627Q318.90625 32.665627 319.3125 32.290627Q319.73438 31.915627 319.85938 31.118752ZM321.79688 33.4L321.79688 24.806252L322.84375 24.806252L322.84375 27.884377Q323.57812 27.040627 324.70312 27.040627Q325.40625 27.040627 325.90625 27.321877Q326.42188 27.587502 326.64062 28.071877Q326.85938 28.540627 326.85938 29.462502L326.85938 33.4L325.8125 33.4L325.8125 29.462502Q325.8125 28.665627 325.46875 28.306252Q325.125 27.946877 324.5 27.946877Q324.03125 27.946877 323.60938 28.196877Q323.20312 28.431252 323.01562 28.853127Q322.84375 29.259377 322.84375 29.993752L322.84375 33.4L321.79688 33.4ZM328.79688 26.025002L328.79688 24.806252L329.85938 24.806252L329.85938 26.025002L328.79688 26.025002ZM328.79688 33.4L328.79688 27.181252L329.85938 27.181252L329.85938 33.4L328.79688 33.4ZM331.79688 33.4L331.79688 27.181252L332.73438 27.181252L332.73438 28.056252Q333.42188 27.040627 334.71875 27.040627Q335.28125 27.040627 335.75 27.243752Q336.23438 27.446877 336.46875 27.775002Q336.70312 28.103127 336.79688 28.540627Q336.84375 28.837502 336.84375 29.571877L336.84375 33.4L335.79688 33.4L335.79688 29.618752Q335.79688 28.962502 335.67188 28.650002Q335.54688 28.337502 335.23438 28.150002Q334.92188 27.946877 334.5 27.946877Q333.82812 27.946877 333.32812 28.384377Q332.84375 28.806252 332.84375 29.993752L332.84375 33.4L331.79688 33.4ZM338.59375 33.915627L339.625 34.071877Q339.6875 34.540627 339.98438 34.759377Q340.375 35.05625 341.04688 35.05625Q341.78125 35.05625 342.17188 34.759377Q342.57812 34.4625 342.71875 33.946877Q342.8125 33.61875 342.79688 32.5875Q342.10938 33.4 341.07812 33.4Q339.79688 33.4 339.09375 32.478127Q338.39062 31.540627 338.39062 30.259377Q338.39062 29.368752 338.70312 28.618752Q339.03125 27.853127 339.64062 27.446877Q340.25 27.040627 341.07812 27.040627Q342.1875 27.040627 342.90625 27.931252L342.90625 27.181252L343.875 27.181252L343.875 32.55625Q343.875 34.009377 343.57812 34.61875Q343.28125 35.228127 342.64062 35.571877Q342.0 35.93125 341.0625 35.93125Q339.95312 35.93125 339.26562 35.43125Q338.57812 34.93125 338.59375 33.915627ZM339.46875 30.181252Q339.46875 31.400002 339.95312 31.962502Q340.4375 32.525 341.17188 32.525Q341.90625 32.525 342.39062 31.962502Q342.89062 31.400002 342.89062 30.212502Q342.89062 29.071877 342.375 28.493752Q341.875 27.915627 341.15625 27.915627Q340.45312 27.915627 339.95312 28.493752Q339.46875 29.056252 339.46875 30.181252Z" fill-rule="nonzero"/><path stroke="#4285f4" stroke-width="4.0" stroke-linecap="butt" d="M361.0 29.4L373.0 29.4" fill-rule="nonzero"/><path fill="#1a1a1a" d="M381.92188 33.4L381.92188 24.806252L383.07812 24.806252L387.59375 31.556252L387.59375 24.806252L388.6875 24.806252L388.6875 33.4L387.51562 33.4L383.0 26.650002L383.0 33.4L381.92188 33.4ZM390.40625 30.290627Q390.40625 28.556252 391.35938 27.728127Q392.15625 27.040627 393.3125 27.040627Q394.59375 27.040627 395.40625 27.884377Q396.23438 28.712502 396.23438 30.196877Q396.23438 31.400002 395.875 32.0875Q395.51562 32.775 394.8125 33.165627Q394.125 33.540627 393.3125 33.540627Q392.01562 33.540627 391.20312 32.7125Q390.40625 31.868752 390.40625 30.290627ZM391.48438 30.290627Q391.48438 31.478127 392.0 32.071877Q392.53125 32.665627 393.3125 32.665627Q394.10938 32.665627 394.625 32.071877Q395.14062 31.478127 395.14062 30.259377Q395.14062 29.103127 394.60938 28.509377Q394.09375 27.915627 393.3125 27.915627Q392.53125 27.915627 392.0 28.509377Q391.48438 29.087502 391.48438 30.290627ZM400.875 33.4L400.875 24.806252L404.10938 24.806252Q405.09375 24.806252 405.6875 25.071877Q406.28125 25.337502 406.60938 25.884377Q406.95312 26.415627 406.95312 27.009377Q406.95312 27.556252 406.65625 28.040627Q406.35938 28.525002 405.75 28.821877Q406.53125 29.056252 406.9375 29.618752Q407.35938 30.165627 407.35938 30.915627Q407.35938 31.509377 407.10938 32.040627Q406.85938 32.55625 406.48438 32.8375Q406.10938 33.11875 405.53125 33.259377Q404.96875 33.4 404.15625 33.4L400.875 33.4ZM402.01562 28.415627L403.875 28.415627Q404.625 28.415627 404.95312 28.321877Q405.39062 28.196877 405.60938 27.900002Q405.82812 27.587502 405.82812 27.134377Q405.82812 26.712502 405.625 26.384377Q405.42188 26.056252 405.03125 25.946877Q404.65625 25.821877 403.73438 25.821877L402.01562 25.821877L402.01562 28.415627ZM402.01562 32.384377L404.15625 32.384377Q404.70312 32.384377 404.92188 32.3375Q405.32812 32.275 405.57812 32.11875Q405.84375 31.946877 406.01562 31.634377Q406.1875 31.321877 406.1875 30.915627Q406.1875 30.431252 405.9375 30.071877Q405.70312 29.712502 405.26562 29.571877Q404.82812 29.431252 404.0 29.431252L402.01562 29.431252L402.01562 32.384377ZM412.85938 32.634377Q412.26562 33.134377 411.71875 33.3375Q411.1875 33.540627 410.5625 33.540627Q409.53125 33.540627 408.98438 33.040627Q408.4375 32.540627 408.4375 31.759377Q408.4375 31.306252 408.64062 30.931252Q408.84375 30.540627 409.1875 30.321877Q409.53125 30.087502 409.95312 29.978127Q410.25 29.884377 410.89062 29.806252Q412.15625 29.665627 412.76562 29.446877Q412.76562 29.228127 412.76562 29.181252Q412.76562 28.525002 412.46875 28.259377Q412.0625 27.915627 411.26562 27.915627Q410.53125 27.915627 410.17188 28.181252Q409.8125 28.431252 409.64062 29.087502L408.60938 28.946877Q408.75 28.290627 409.07812 27.884377Q409.40625 27.478127 410.01562 27.259377Q410.625 27.040627 411.42188 27.040627Q412.21875 27.040627 412.71875 27.228127Q413.21875 27.415627 413.45312 27.696877Q413.6875 27.978127 413.78125 28.415627Q413.82812 28.681252 413.82812 29.384377L413.82812 30.790627Q413.82812 32.259377 413.89062 32.65Q413.96875 33.040627 414.17188 33.4L413.0625 33.4Q412.90625 33.071877 412.85938 32.634377ZM412.76562 30.275002Q412.1875 30.509377 411.04688 30.681252Q410.39062 30.775002 410.125 30.900002Q409.85938 31.009377 409.70312 31.228127Q409.5625 31.446877 409.5625 31.728127Q409.5625 32.15 409.875 32.43125Q410.20312 32.7125 410.8125 32.7125Q411.42188 32.7125 411.89062 32.446877Q412.375 32.18125 412.59375 31.712502Q412.76562 31.353127 412.76562 30.665627L412.76562 30.275002ZM418.09375 32.4625L418.25 33.384377Q417.79688 33.478127 417.45312 33.478127Q416.875 33.478127 416.5625 33.30625Q416.25 33.11875 416.10938 32.821877Q415.98438 32.525 415.98438 31.571877L415.98438 27.993752L415.21875 27.993752L415.21875 27.181252L415.98438 27.181252L415.98438 25.634377L417.03125 25.009377L417.03125 27.181252L418.09375 27.181252L418.09375 27.993752L417.03125 27.993752L417.03125 31.634377Q417.03125 32.0875 417.07812 32.2125Q417.14062 32.3375 417.26562 32.415627Q417.39062 32.49375 417.625 32.49375Q417.8125 32.49375 418.09375 32.4625ZM422.85938 31.118752L423.89062 31.259377Q423.71875 32.321877 423.01562 32.93125Q422.3125 33.540627 421.29688 33.540627Q420.01562 33.540627 419.23438 32.7125Q418.46875 31.868752 418.46875 30.306252Q418.46875 29.306252 418.79688 28.556252Q419.14062 27.790627 419.8125 27.415627Q420.5 27.040627 421.3125 27.040627Q422.3125 27.040627 422.95312 27.556252Q423.60938 28.056252 423.79688 29.009377L422.76562 29.165627Q422.625 28.540627 422.25 28.228127Q421.875 27.900002 421.34375 27.900002Q420.54688 27.900002 420.04688 28.478127Q419.54688 29.040627 419.54688 30.275002Q419.54688 31.540627 420.03125 32.103127Q420.51562 32.665627 421.28125 32.665627Q421.90625 32.665627 422.3125 32.290627Q422.73438 31.915627 422.85938 31.118752ZM424.79688 33.4L424.79688 24.806252L425.84375 24.806252L425.84375 27.884377Q426.57812 27.040627 427.70312 27.040627Q428.40625 27.040627 428.90625 27.321877Q429.42188 27.587502 429.64062 28.071877Q429.85938 28.540627 429.85938 29.462502L429.85938 33.4L428.8125 33.4L428.8125 29.462502Q428.8125 28.665627 428.46875 28.306252Q428.125 27.946877 427.5 27.946877Q427.03125 27.946877 426.60938 28.196877Q426.20312 28.431252 426.01562 28.853127Q425.84375 29.259377 425.84375 29.993752L425.84375 33.4L424.79688 33.4ZM431.79688 26.025002L431.79688 24.806252L432.85938 24.806252L432.85938 26.025002L431.79688 26.025002ZM431.79688 33.4L431.79688 27.181252L432.85938 27.181252L432.85938 33.4L431.79688 33.4ZM434.79688 33.4L434.79688 27.181252L435.73438 27.181252L435.73438 28.056252Q436.42188 27.040627 437.71875 27.040627Q438.28125 27.040627 438.75 27.243752Q439.23438 27.446877 439.46875 27.775002Q439.70312 28.103127 439.79688 28.540627Q439.84375 28.837502 439.84375 29.571877L439.84375 33.4L438.79688 33.4L438.79688 29.618752Q438.79688 28.962502 438.67188 28.650002Q438.54688 28.337502 438.23438 28.150002Q437.92188 27.946877 437.5 27.946877Q436.82812 27.946877 436.32812 28.384377Q435.84375 28.806252 435.84375 29.993752L435.84375 33.4L434.79688 33.4ZM441.59375 33.915627L442.625 34.071877Q442.6875 34.540627 442.98438 34.759377Q443.375 35.05625 444.04688 35.05625Q444.78125 35.05625 445.17188 34.759377Q445.57812 34.4625 445.71875 33.946877Q445.8125 33.61875 445.79688 32.5875Q445.10938 33.4 444.07812 33.4Q442.79688 33.4 442.09375 32.478127Q441.39062 31.540627 441.39062 30.259377Q441.39062 29.368752 441.70312 28.618752Q442.03125 27.853127 442.64062 27.446877Q443.25 27.040627 444.07812 27.040627Q445.1875 27.040627 445.90625 27.931252L445.90625 27.181252L446.875 27.181252L446.875 32.55625Q446.875 34.009377 446.57812 34.61875Q446.28125 35.228127 445.64062 35.571877Q445.0 35.93125 444.0625 35.93125Q442.95312 35.93125 442.26562 35.43125Q441.57812 34.93125 441.59375 33.915627ZM442.46875 30.181252Q442.46875 31.400002 442.95312 31.962502Q443.4375 32.525 444.17188 32.525Q444.90625 32.525 445.39062 31.962502Q445.89062 31.400002 445.89062 30.212502Q445.89062 29.071877 445.375 28.493752Q444.875 27.915627 444.15625 27.915627Q443.45312 27.915627 442.95312 28.493752Q442.46875 29.056252 442.46875 30.181252Z" fill-rule="nonzero"/></svg>